<?xml version="1.0" encoding="UTF-8"?>
<svg version="1.1" xmlns="http://www.w3.org/2000/svg" width="895" height="120">
<path d="M0 0 C15 0 15 0 18.35180664 2.79467773 C19.44239807 4.64805603 19.44239807 4.64805603 20.41015625 6.68359375 C20.79642685 7.37252213 21.18269745 8.0614505 21.58067322 8.77125549 C22.7972656 10.96799205 23.9294155 13.19674734 25.0625 15.4375 C25.8533519 16.90590078 26.64954233 18.37143946 27.45117188 19.83398438 C28.97890815 22.6302313 30.48042865 25.43813532 31.96533203 28.25732422 C34.3426953 32.71062379 37.05084518 36.90407185 40 41 C40.40726318 40.32122803 40.81452637 39.64245605 41.23413086 38.94311523 C41.80526611 37.99122314 42.37640137 37.03933105 42.96484375 36.05859375 C43.59632324 35.00607422 44.22780273 33.95355469 44.87841797 32.86914062 C46.2534921 30.57732298 47.62884248 28.28567144 49.00439453 25.99414062 C51.99570028 21.01048735 54.98638937 16.02650483 57.96484375 11.03515625 C58.58854858 9.99113647 58.58854858 9.99113647 59.22485352 8.92602539 C59.9752477 7.66942175 60.72448852 6.41212843 61.47241211 5.15405273 C63.88824342 1.11175658 63.88824342 1.11175658 65 0 C67.35313555 -0.07271741 69.70833668 -0.08370868 72.0625 -0.0625 C73.99802734 -0.04896484 73.99802734 -0.04896484 75.97265625 -0.03515625 C76.97167969 -0.02355469 77.97070312 -0.01195313 79 0 C80.4278535 2.85570699 80.11941486 5.27714356 80.11352539 8.46923828 C80.11367142 9.13277313 80.11381744 9.79630798 80.1139679 10.47994995 C80.11327031 12.67677053 80.10548514 14.8735067 80.09765625 17.0703125 C80.09579152 18.59203037 80.09436788 20.11374884 80.09336853 21.63546753 C80.08954767 25.64351047 80.07972104 29.65151726 80.06866455 33.6595459 C80.05844118 37.74828604 80.05386892 41.83703201 80.04882812 45.92578125 C80.0380984 53.95053744 80.02102713 61.97526422 80 70 C77.35409986 70.02684679 74.70846904 70.04676357 72.0625 70.0625 C71.30775391 70.07087891 70.55300781 70.07925781 69.77539062 70.08789062 C67.85005687 70.09652441 65.92464419 70.05224333 64 70 C61.96876925 67.96876925 62.74330382 63.82231134 62.68359375 61.02734375 C62.66281265 60.22970108 62.64203156 59.43205841 62.62062073 58.61024475 C62.55503842 56.05275389 62.49620033 53.4951572 62.4375 50.9375 C62.39432301 49.20767118 62.35070899 47.47785321 62.30664062 45.74804688 C62.19934828 41.4988074 62.09810574 37.2494611 62 33 C61.23538452 34.30988892 61.23538452 34.30988892 60.45532227 35.64624023 C58.56901659 38.87680389 56.68069305 42.10618408 54.79174805 45.33520508 C53.97348558 46.7346208 53.15577544 48.13435962 52.33862305 49.53442383 C51.16599236 51.54332722 49.99139954 53.55107155 48.81640625 55.55859375 C48.44971329 56.18777206 48.08302032 56.81695038 47.70521545 57.4651947 C44.57341512 62.80816832 44.57341512 62.80816832 42.25 63.58544922 C39.3928588 64.02257694 37.74629089 63.97643547 35 63 C31.26246635 58.81024369 28.69664913 54.02487892 26 49.125 C25.23352944 47.79120523 24.46402647 46.45914818 23.69140625 45.12890625 C19.02321698 37.04643395 19.02321698 37.04643395 17 33 C16.67 45.21 16.34 57.42 16 70 C10.72 70 5.44 70 0 70 C0 46.9 0 23.8 0 0 Z " fill="#FFFFFF" transform="translate(89,22)"/>
<path d="M0 0 C7.47335981 7.994757 8.6875 16.08828866 8.6875 26.875 C-4.5125 27.205 -17.7125 27.535 -31.3125 27.875 C-29.14635736 32.20728528 -28.59858821 32.99983641 -24.3125 34.875 C-17.37975943 36.43814805 -12.73504219 35.75407064 -6.3125 32.875 C-4.3325 32.38 -4.3325 32.38 -2.3125 31.875 C-0.0025 34.515 2.3075 37.155 4.6875 39.875 C2.14603163 44.95793674 -0.78570299 46.84665238 -6 48.96875 C-14.75947583 51.36521037 -25.92154571 51.20301869 -34.16796875 47.19921875 C-41.60081267 42.60953917 -46.41061913 37.34650069 -48.89453125 28.89453125 C-50.37442325 21.74402504 -49.40033182 14.46375151 -46.3125 7.875 C-35.23786175 -8.36780277 -16.11765353 -10.33962679 0 0 Z M-30.3125 10.875 C-30.9725 12.855 -31.6325 14.835 -32.3125 16.875 C-24.0625 16.875 -15.8125 16.875 -7.3125 16.875 C-8.72353898 11.0391077 -8.72353898 11.0391077 -11.875 8.5 C-18.61982218 5.31153861 -24.68262403 5.65706618 -30.3125 10.875 Z " fill="#FFFFFF" transform="translate(517.3125,43.125)"/>
<path d="M0 0 C4.01715935 3.28941309 5.78088606 8.44901472 6.38726807 13.49491882 C6.46895746 15.80458614 6.46326166 18.0956193 6.41796875 20.40625 C6.41372391 21.23838013 6.40947906 22.07051025 6.40510559 22.92785645 C6.38846307 25.55641593 6.35083976 28.18417667 6.3125 30.8125 C6.29743444 32.60675967 6.28374933 34.4010315 6.27148438 36.1953125 C6.23860714 40.56801083 6.18692722 44.94012053 6.125 49.3125 C1.175 49.3125 -3.775 49.3125 -8.875 49.3125 C-9.37 47.3325 -9.37 47.3325 -9.875 45.3125 C-10.638125 45.951875 -11.40125 46.59125 -12.1875 47.25 C-17.95158856 51.67360285 -24.91624757 50.74496484 -31.875 50.3125 C-37.03948209 49.19893595 -40.52074814 46.33760223 -43.875 42.3125 C-46.09703751 38.29167022 -46.33762478 34.86164366 -45.875 30.3125 C-44.44427389 25.73760334 -42.60398039 22.38580478 -38.4375 19.875 C-33.86826171 17.87094812 -29.97553742 17.18281911 -25.01171875 17.21484375 C-23.68237305 17.21967773 -23.68237305 17.21967773 -22.32617188 17.22460938 C-21.41416016 17.23298828 -20.50214844 17.24136719 -19.5625 17.25 C-18.63115234 17.25451172 -17.69980469 17.25902344 -16.74023438 17.26367188 C-14.45175627 17.27540766 -12.16341192 17.29182637 -9.875 17.3125 C-11.92310356 12.80952926 -11.92310356 12.80952926 -15.375 9.375 C-21.5591404 7.49767166 -27.51004847 8.25671807 -33.375 10.875 C-34.2 11.349375 -35.025 11.82375 -35.875 12.3125 C-36.865 12.3125 -37.855 12.3125 -38.875 12.3125 C-39.71319158 10.69000059 -40.5454116 9.06441503 -41.375 7.4375 C-41.8390625 6.53257813 -42.303125 5.62765625 -42.78125 4.6953125 C-43.875 2.3125 -43.875 2.3125 -43.875 0.3125 C-30.46478362 -6.87154449 -12.94389281 -9.85561963 0 0 Z M-29.875 32.3125 C-29.03146064 34.98370799 -28.41688875 36.85397875 -26.25 38.6875 C-21.33750572 39.98026165 -17.25370216 39.0751863 -12.9375 36.6875 C-10.28478829 33.63286228 -10.31239328 31.26285191 -9.875 27.3125 C-12.27274745 27.17677845 -14.66275245 27.07813132 -17.0625 27 C-17.73603516 26.95810547 -18.40957031 26.91621094 -19.10351562 26.87304688 C-24.4704759 26.7421454 -26.55327005 28.21677472 -29.875 32.3125 Z " fill="#FFFFFF" transform="translate(220.875,42.6875)"/>
<path d="M0 0 C4.93433831 2.82420664 8.37360464 6.33686425 10.11399841 11.90020752 C10.50745954 13.976871 10.62038289 15.85957114 10.61352539 17.97167969 C10.61344986 18.75218689 10.61337433 19.53269409 10.61329651 20.33685303 C10.60813522 21.16928528 10.60297394 22.00171753 10.59765625 22.859375 C10.5962413 23.71936096 10.59482635 24.57934692 10.59336853 25.46539307 C10.58778097 28.20613109 10.57523075 30.94678676 10.5625 33.6875 C10.55748339 35.5481759 10.55292077 37.40885309 10.54882812 39.26953125 C10.53781561 43.82555246 10.52055951 48.38151228 10.5 52.9375 C5.22 52.9375 -0.06 52.9375 -5.5 52.9375 C-5.53738281 50.69710937 -5.57476562 48.45671875 -5.61328125 46.1484375 C-5.65957397 43.96393411 -5.71077914 41.77959684 -5.76245117 39.59521484 C-5.79557926 38.08425096 -5.82364855 36.57316693 -5.84643555 35.06201172 C-5.88020681 32.88196918 -5.93252896 30.70301561 -5.98828125 28.5234375 C-6.01446533 27.2142334 -6.04064941 25.9050293 -6.06762695 24.55615234 C-6.53091718 20.67874539 -7.40593582 18.2200871 -9.5 14.9375 C-13.53309171 13.07607306 -15.86633901 12.83188984 -20.25 13.5625 C-23.61408537 14.98576689 -24.78054654 15.78516865 -26.5 18.9375 C-27.66402727 22.42958181 -27.71118508 25.32897772 -27.81640625 29.01171875 C-27.83718735 29.6955513 -27.85796844 30.37938385 -27.87937927 31.0839386 C-27.94466154 33.2641921 -28.00366017 35.44456405 -28.0625 37.625 C-28.10570553 39.10482986 -28.14932047 40.58464783 -28.19335938 42.06445312 C-28.30109025 45.68868254 -28.40032107 49.31300438 -28.5 52.9375 C-34.11 52.9375 -39.72 52.9375 -45.5 52.9375 C-45.5 35.1175 -45.5 17.2975 -45.5 -1.0625 C-40.22 -1.0625 -34.94 -1.0625 -29.5 -1.0625 C-29.17 0.2575 -28.84 1.5775 -28.5 2.9375 C-27.92894531 2.5765625 -27.35789062 2.215625 -26.76953125 1.84375 C-18.07860302 -3.13039016 -9.30208065 -4.16655696 0 0 Z " fill="#FFFFFF" transform="translate(306.5,39.0625)"/>
<path d="M0 0 C5.19884433 5.19884433 6.6487106 11.37695402 6.86352539 18.53051758 C6.86336851 19.98519841 6.85780505 21.43988581 6.84765625 22.89453125 C6.8462413 23.66431808 6.84482635 24.43410492 6.84336853 25.22721863 C6.83779606 27.67235288 6.82524871 30.11739368 6.8125 32.5625 C6.80748144 34.22591013 6.80291915 35.8893217 6.79882812 37.55273438 C6.78868892 41.61855407 6.76910832 45.68417311 6.75 49.75 C1.14 49.75 -4.47 49.75 -10.25 49.75 C-10.30607422 46.26373047 -10.30607422 46.26373047 -10.36328125 42.70703125 C-10.4095442 40.44643959 -10.46076028 38.1860104 -10.51245117 35.92553711 C-10.54562532 34.35923199 -10.57368058 32.79280949 -10.59643555 31.22631836 C-10.63012116 28.96938237 -10.68244049 26.71351474 -10.73828125 24.45703125 C-10.74467117 23.76100296 -10.7510611 23.06497467 -10.75764465 22.34785461 C-10.88752544 18.01520215 -11.53571496 15.16609843 -14.25 11.75 C-18.10884662 10.07540618 -20.36868942 9.56356891 -24.5 10.4375 C-28.04484316 12.12935696 -29.58932688 13.39079151 -31.30224609 16.91479492 C-32.43686137 20.30899563 -32.57273666 23.22385252 -32.6640625 26.80078125 C-32.68342865 27.45958786 -32.7027948 28.11839447 -32.7227478 28.79716492 C-32.78215941 30.88548143 -32.82877291 32.97385424 -32.875 35.0625 C-32.91321532 36.48504905 -32.95226909 37.90757584 -32.9921875 39.33007812 C-33.08939621 42.80326448 -33.1692642 46.27623597 -33.25 49.75 C-38.53 49.75 -43.81 49.75 -49.25 49.75 C-49.25 31.93 -49.25 14.11 -49.25 -4.25 C-43.97 -4.25 -38.69 -4.25 -33.25 -4.25 C-33.25 -2.93 -33.25 -1.61 -33.25 -0.25 C-31.64125 -1.2090625 -31.64125 -1.2090625 -30 -2.1875 C-20.23394256 -8.0095727 -8.96629194 -6.20743288 0 0 Z " fill="#FFFFFF" transform="translate(457.25,42.25)"/>
<path d="M0 0 C5.61 0 11.22 0 17 0 C17 18.48 17 36.96 17 56 C28.88 56 40.76 56 53 56 C53 60.62 53 65.24 53 70 C35.51 70 18.02 70 0 70 C0 46.9 0 23.8 0 0 Z " fill="#FFFFFF" transform="translate(327,22)"/>
<path d="M0 0 C2.31 0 4.62 0 7 0 C7.33 2.31 7.66 4.62 8 7 C8.9075 6.21625 9.815 5.4325 10.75 4.625 C15.75335797 0.30391812 19.68226509 -0.27584904 26.25 -0.125 C26.99507812 -0.11597656 27.74015625 -0.10695312 28.5078125 -0.09765625 C30.33868059 -0.07418358 32.16938238 -0.03831525 34 0 C34.59687622 1.32221558 34.59687622 1.32221558 35.20581055 2.67114258 C36.70599379 5.99428625 38.20636453 9.31734524 39.70678711 12.64038086 C40.35169369 14.06874379 40.99655186 15.49712858 41.64135742 16.92553711 C42.57717842 18.99859513 43.5131834 21.07157001 44.44921875 23.14453125 C44.72964523 23.76584427 45.01007172 24.38715729 45.29899597 25.02729797 C47.85606913 30.68943783 50.42911081 36.34404379 53 42 C59.27 28.14 65.54 14.28 72 0 C74.64 0 77.28 0 80 0 C79.33164538 5.05367664 77.20015613 9.36650318 75.10546875 13.95703125 C74.71684158 14.81882492 74.32821442 15.68061859 73.92781067 16.56852722 C73.10558789 18.38931263 72.28087892 20.2089771 71.45385742 22.02758789 C70.19767619 24.790121 68.94873981 27.55583364 67.70117188 30.32226562 C66.89886164 32.09654602 66.09614038 33.87064062 65.29296875 35.64453125 C64.92302292 36.46250687 64.55307709 37.28048248 64.17192078 38.12324524 C61.88855488 43.14045099 59.49290861 48.08342047 57 53 C54.03 53 51.06 53 48 53 C47.09906616 50.96307983 47.09906616 50.96307983 46.17993164 48.88500977 C43.95895739 43.86525713 41.7349519 38.84685245 39.51000977 33.82885742 C38.54596025 31.6534453 37.5827423 29.47766446 36.62036133 27.30151367 C35.23995959 24.18051272 33.85660986 21.0608335 32.47265625 17.94140625 C32.04034195 16.96224747 31.60802765 15.98308868 31.16261292 14.97425842 C30.76227341 14.07340012 30.3619339 13.17254181 29.94946289 12.24438477 C29.59638565 11.44718521 29.24330841 10.64998566 28.87953186 9.82862854 C28.13697322 8.02672805 28.13697322 8.02672805 27 7 C17.81194372 8.88163835 17.81194372 8.88163835 11 15 C8.90119408 19.18217257 8.66222693 23.1101439 8.5859375 27.70703125 C8.56657135 28.43242599 8.5472052 29.15782074 8.5272522 29.90519714 C8.46777892 32.20751422 8.42120155 34.50988219 8.375 36.8125 C8.33679042 38.37957832 8.29773697 39.94663631 8.2578125 41.51367188 C8.16210437 45.34228152 8.07795552 49.17098942 8 53 C5.36 53 2.72 53 0 53 C0 35.51 0 18.02 0 0 Z " fill="#FFFFFF" transform="translate(657,39)"/>
<path d="M0 0 C-0.66 2.31 -1.32 4.62 -2 7 C-2.78375 6.731875 -3.5675 6.46375 -4.375 6.1875 C-5.57125 5.795625 -6.7675 5.40375 -8 5 C-8.76183594 4.73574219 -9.52367187 4.47148437 -10.30859375 4.19921875 C-19.36701429 1.21742977 -26.273366 0.93760141 -35 5 C-37.99397984 7.66365812 -38.91447418 9.24452189 -39.375 13.3125 C-39.01128476 16.88903323 -38.65525071 18.53280961 -35.91796875 20.88671875 C-31.35961908 23.532604 -26.04215219 24.60058912 -21 26 C-3.54794744 31.01746511 -3.54794744 31.01746511 1 37 C3.71080853 42.5394783 3.68455145 47.70473924 1.9375 53.5625 C-1.55886526 59.76572869 -6.42502288 63.57564425 -13.296875 65.52734375 C-25.00340103 67.57429411 -37.68353232 66.37642745 -47.8125 59.75 C-48.8953125 58.88375 -48.8953125 58.88375 -50 58 C-49.48967606 54.22360282 -48.79233071 52.55277419 -46 50 C-45.071875 50.763125 -44.14375 51.52625 -43.1875 52.3125 C-36.30189619 57.20892937 -27.35170169 59.09579065 -19 58 C-14.84771778 57.08755582 -11.25475179 56.0266151 -7.9375 53.3125 C-6.56762244 49.93346869 -6.11527652 46.56675924 -7 43 C-9.57552832 39.83146065 -11.91389479 38.35510067 -15.75 37.0625 C-16.70777344 36.73378906 -17.66554688 36.40507813 -18.65234375 36.06640625 C-21.11887371 35.2806855 -23.58657621 34.51856895 -26.06640625 33.77734375 C-26.76862305 33.5652124 -27.47083984 33.35308105 -28.19433594 33.13452148 C-29.57345393 32.72139013 -30.95554905 32.31802981 -32.34082031 31.92602539 C-37.89235529 30.2767465 -43.38543878 27.68726972 -47 23 C-49.14469535 16.88661606 -49.6436146 11.04707668 -47.16796875 5.00390625 C-43.92810468 -0.55479031 -38.81688949 -3.77886763 -32.71484375 -5.53125 C-21.46029854 -7.47448083 -9.56064595 -6.69245217 0 0 Z " fill="#FFFFFF" transform="translate(582,27)"/>
<path d="M0 0 C0.70108887 0.00572021 1.40217773 0.01144043 2.12451172 0.01733398 C10.08171549 0.29079956 15.04787841 3.10304537 20.5 8.6875 C25.45137532 15.00050353 26.125 21.67123083 26.125 29.5 C11.605 29.5 -2.915 29.5 -17.875 29.5 C-14.84030412 38.83928292 -14.84030412 38.83928292 -7.875 44.5 C-2.23659145 46.94685654 3.21664511 46.99789279 9.125 45.5 C11.36032286 44.26539629 13.33280872 42.94447439 15.3359375 41.36328125 C17.125 40.5 17.125 40.5 19.3046875 41.22265625 C21.125 42.5 21.125 42.5 21.875 44.625 C21.9575 45.24375 22.04 45.8625 22.125 46.5 C15.10312801 52.99523159 8.84892496 55.11952702 -0.7734375 54.8515625 C-8.41924476 53.98490928 -14.9623208 51.60363174 -19.875 45.5 C-20.596875 44.695625 -21.31875 43.89125 -22.0625 43.0625 C-27.04239142 36.02196386 -26.5650928 27.77237825 -25.875 19.5 C-24.29076569 12.86898335 -20.37907302 7.50107756 -14.875 3.5 C-9.89527078 0.94105591 -5.55291541 -0.05284032 0 0 Z M-13.875 12.5 C-16.33046029 16.08553008 -17.875 19.12175492 -17.875 23.5 C-5.995 23.5 5.885 23.5 18.125 23.5 C16.11854002 15.74987236 16.11854002 15.74987236 11.5625 11 C10.66337891 10.30390625 10.66337891 10.30390625 9.74609375 9.59375 C2.55697517 4.74326036 -7.91455895 6.51090298 -13.875 12.5 Z " fill="#FFFFFF" transform="translate(762.875,38.5)"/>
<path d="M0 0 C2.64 0 5.28 0 8 0 C14.96420695 13.38963572 21.01017053 27.15183231 27 41 C30.13933771 37.31361058 31.85002575 33.16634684 33.7578125 28.76953125 C34.2805928 27.58299202 34.2805928 27.58299202 34.81393433 26.3724823 C35.92250459 23.85459955 37.02415432 21.33376845 38.125 18.8125 C39.23396896 16.28097003 40.34440612 13.75010659 41.45748901 11.22038269 C42.14902005 9.64789653 42.83799267 8.07428238 43.52420044 6.49946594 C45.8885014 1.1114986 45.8885014 1.1114986 47 0 C49.67058851 -0.14115161 52.32432238 -0.04247107 55 0 C53.42470622 5.09564483 51.35257923 9.85870905 49.1484375 14.703125 C48.58184921 15.95811798 48.58184921 15.95811798 48.0038147 17.23846436 C46.79696314 19.91023129 45.58613959 22.58017453 44.375 25.25 C43.19093285 27.86669615 42.00770889 30.48377013 40.82525635 33.10119629 C40.04077263 34.83567794 39.25443576 36.56932263 38.46624756 38.30212402 C36.54353106 42.53731711 34.6554927 46.78173474 32.84082031 51.06445312 C32.32136337 52.27642365 32.32136337 52.27642365 31.79141235 53.51287842 C31.14865883 55.01756157 30.51556984 56.52643163 29.89486694 58.04034424 C27.18172745 64.35525446 23.57163756 70.28303405 17 73 C9.31120475 73.8643613 3.28493683 73.67716229 -3 69 C-1.125 64.25 -1.125 64.25 0 62 C2 63 4 64 6 65 C11.67141219 65.4865354 11.67141219 65.4865354 16.8125 63.4375 C19.50287618 60.43965225 20.78800808 57.83797442 22 54 C21.56459563 50.6152526 20.59787317 47.77491876 19.17407227 44.68798828 C18.80020889 43.8700882 18.42634552 43.05218811 18.04115295 42.20950317 C17.63698654 41.33857025 17.23282013 40.46763733 16.81640625 39.5703125 C16.40083969 38.66175507 15.98527313 37.75319763 15.55711365 36.81710815 C14.23058571 33.91740976 12.89733896 31.02088102 11.5625 28.125 C9.80809019 24.31769255 8.06037078 20.50741375 6.31640625 16.6953125 C5.91426407 15.82842804 5.51212189 14.96154358 5.09779358 14.06838989 C2.97586989 9.42959201 1.24857542 4.94838283 0 0 Z " fill="#FFFFFF" transform="translate(788,39)"/>
<path d="M0 0 C2.64 0 5.28 0 8 0 C8.01981934 0.86165771 8.03963867 1.72331543 8.06005859 2.61108398 C8.13877354 5.84861657 8.22548372 9.08581491 8.31738281 12.32299805 C8.35535297 13.71647073 8.3902577 15.11003081 8.421875 16.50366211 C8.4390816 29.69170456 8.4390816 29.69170456 12.6875 41.9375 C16.12879705 45.00676493 19.43715205 46.00487233 24.0546875 45.99609375 C28.42082593 45.60890789 31.40785536 44.4299802 35 42 C35.66 42 36.32 42 37 42 C39.20021078 36.5728134 40.1822826 32.11379069 40.31640625 26.26953125 C40.33718735 25.51911057 40.35796844 24.76868988 40.37937927 23.99552917 C40.44469926 21.60127816 40.50367792 19.20691861 40.5625 16.8125 C40.60570193 15.18813987 40.64931676 13.56379067 40.69335938 11.93945312 C40.80036263 7.95974629 40.90167937 3.97993042 41 0 C43.64 0 46.28 0 49 0 C49 17.49 49 34.98 49 53 C46.69 53 44.38 53 42 53 C41.505 50.03 41.505 50.03 41 47 C40.39671875 47.42152344 39.7934375 47.84304687 39.171875 48.27734375 C37.97304688 49.09912109 37.97304688 49.09912109 36.75 49.9375 C35.96109375 50.48277344 35.1721875 51.02804688 34.359375 51.58984375 C28.53659369 55.07001602 21.2820705 54.74341502 14.75 53.609375 C9.08159628 51.88228324 4.92835355 48.11274701 2 43 C-0.78974028 34.36465263 -0.22348524 25.40801913 -0.125 16.4375 C-0.11495088 14.8405004 -0.10582844 13.24349468 -0.09765625 11.64648438 C-0.07579391 7.76416994 -0.0413706 3.88215356 0 0 Z " fill="#FFFFFF" transform="translate(593,39)"/>
<path d="M0 0 C3 1.5 3 1.5 5 4 C6.09046481 7.91284432 6.69170744 10.29955253 5.15625 14.07421875 C4.0625 16 4.0625 16 2 19 C2.969375 19.04125 3.93875 19.0825 4.9375 19.125 C12.57334502 20.25109432 18.78806001 26.01516829 23.4921875 31.82421875 C29.34503192 40.26990358 30.07750688 48.89973353 29 59 C28.09687415 62.63182158 26.81233178 65.73303351 25 69 C24.4740625 69.96679688 24.4740625 69.96679688 23.9375 70.953125 C20.72098433 76.09061531 16.22127973 79.07466501 11 82 C10.39542969 82.34289062 9.79085937 82.68578125 9.16796875 83.0390625 C1.32116426 86.69748551 -9.25562988 86.33721988 -17.3125 83.5625 C-26.77410514 79.06823756 -33.37596175 71.75961929 -37 62 C-39.61118208 53.62737102 -38.56409405 43.91575944 -35 36 C-30.34921258 28.19381109 -23.60768045 22.11897733 -15 19 C-13.68 19 -12.36 19 -11 19 C-11.474375 18.278125 -11.94875 17.55625 -12.4375 16.8125 C-14.0268862 13.95160484 -14.84494157 12.25622711 -15 9 C-12.15878718 0.61842219 -8.40810596 -1.15058292 0 0 Z M-12 7 C-12.10135489 10.71307604 -12.10135489 10.71307604 -11 14 C-8.29196778 15.35401611 -6.43517683 14.91421523 -3.4375 14.625 C-2.44621094 14.53476562 -1.45492187 14.44453125 -0.43359375 14.3515625 C1.94350162 14.25607875 1.94350162 14.25607875 3 13 C3.50070321 9.62642666 3.50070321 9.62642666 3 6 C0.61186047 3.33893024 -1.01553885 2.22150376 -4.5 1.4375 C-8.29082295 2.29043516 -9.74689043 3.88540736 -12 7 Z M-26.6875 32.8125 C-31.98739912 39.16535921 -34.1849984 45.76140463 -34 54 C-32.66267575 62.46539234 -28.54066482 70.50973417 -21.75 75.875 C-14.83230756 80.29803787 -6.68329855 82.12355161 1.37109375 80.53125 C10.72543163 78.13927319 16.77260366 73.42618317 21.8125 65.22265625 C25.40061513 58.50674339 26.12973242 51.55744329 24.3125 44.2265625 C21.28570636 35.02006516 16.95607302 29.42764511 8.3046875 25 C-4.66302817 19.37333015 -17.15823625 22.52883621 -26.6875 32.8125 Z " fill="#FFFFFF" transform="translate(51,8)"/>
<path d="M0 0 C0.80042725 0.00418945 1.60085449 0.00837891 2.42553711 0.01269531 C8.23197808 0.12380075 13.00035694 0.63995444 18.25 3.3125 C19.29682195 5.97713769 19.42957531 6.88151925 18.3125 9.5625 C17.7865625 10.42875 17.7865625 10.42875 17.25 11.3125 C14.92057077 10.77493941 12.75747318 10.12911983 10.51171875 9.29296875 C7.08101255 8.26170258 4.26151272 8.01265884 0.6875 8 C-0.40691406 7.98324219 -1.50132812 7.96648438 -2.62890625 7.94921875 C-6.11744148 8.35526853 -7.98262454 9.17566578 -10.75 11.3125 C-11.90811388 14.25979537 -11.90811388 14.25979537 -11.75 17.3125 C-9.31804133 20.89785083 -5.78195847 21.28745254 -1.75 22.25 C16.64296875 26.84824219 16.64296875 26.84824219 20.25 31.3125 C21.90112454 36.26587361 22.10967138 41.2764362 20.0625 46.125 C16.20769633 50.77734926 12.26501371 53.46210151 6.25 54.3125 C-4.13327326 55.16485825 -13.90602929 54.20848047 -22.75 48.3125 C-21.9375 45.375 -21.9375 45.375 -20.75 42.3125 C-17.1486159 41.11203863 -16.60032966 41.57962377 -13.3125 43.1875 C-6.3844377 46.54016636 0.7725834 47.76302867 8.25 45.25 C11.636039 43.54532482 11.636039 43.54532482 12.1875 39.625 C12.208125 38.531875 12.22875 37.43875 12.25 36.3125 C9.37804339 33.90802336 7.18031787 32.83762554 3.51171875 32.13671875 C2.60873047 31.94787109 1.70574219 31.75902344 0.77539062 31.56445312 C-1.10304323 31.19083483 -2.98327033 30.82611236 -4.86523438 30.47070312 C-11.06761302 29.15264256 -15.61972891 27.29248203 -19.75 22.3125 C-21.34631321 17.52356036 -21.58175756 13.14236662 -19.5 8.5625 C-13.84129279 1.2870193 -8.92074678 -0.06262112 0 0 Z " fill="#FFFFFF" transform="translate(862.75,38.6875)"/>
<path d="M0 0 C2 2 2 2 2 6 C3.03125 6.0825 4.0625 6.165 5.125 6.25 C11.50743165 7.48530935 15.37636445 10.69396223 19 16 C20.67417478 19.4320583 21 21.07903833 21 25 C22.98 25.33 24.96 25.66 27 26 C26.34 26.66 25.68 27.32 25 28 C23.68 28 22.36 28 21 28 C20.9175 29.03125 20.835 30.0625 20.75 31.125 C19.51469065 37.50743165 16.30603777 41.37636445 11 45 C7.5679417 46.67417478 5.92096167 47 2 47 C1.67 49.31 1.34 51.62 1 54 C-0.4606285 51.35261084 -1 50.10551666 -1 47 C-2.010625 46.938125 -3.02125 46.87625 -4.0625 46.8125 C-8.62364904 46.11220237 -11.81993693 44.34624214 -15 41 C-17.60785526 36.88129661 -20 32.94406774 -20 28 C-21.98 27.67 -23.96 27.34 -26 27 C-23 25 -23 25 -20 25 C-19.938125 24.175 -19.87625 23.35 -19.8125 22.5 C-18.54590749 17.04390919 -16.3825641 12.76250286 -11.80859375 9.37890625 C-7.8589349 7.08198768 -5.66648658 6 -1 6 C-0.67 4.02 -0.34 2.04 0 0 Z M-13 14 C-15.48054292 17.14018868 -17 19.91024081 -17 24 C-13.7 23.67 -10.4 23.34 -7 23 C-8.12451727 20.0280615 -9.22293791 17.66559313 -11 15 C-10.05125 15.66 -9.1025 16.32 -8.125 17 C-5.33761045 19.17968457 -5.33761045 19.17968457 -3 19 C-2.67 15.7 -2.34 12.4 -2 9 C-6.5383183 9 -9.52358204 11.1950833 -13 14 Z M3 9 C3.66 12.3 4.32 15.6 5 19 C7.64 17.35 10.28 15.7 13 14 C9.92000054 10.32769295 7.7517398 9.43197635 3 9 Z M13 14 C9.86293483 18.09947304 9.86293483 18.09947304 9 23 C11.97 23.33 14.94 23.66 18 24 C17.56802365 19.2482602 16.67230705 17.07999946 13 14 Z M5 25 C6 28 6 28 6 28 Z M-17 29 C-16.55031438 33.94654183 -14.30937215 37.42587808 -11 41 C-7.69309027 43.05028403 -5.88534116 44 -2 44 C-2.33 40.7 -2.66 37.4 -3 34 C-5.31 35.32 -7.62 36.64 -10 38 C-9.67 37.236875 -9.34 36.47375 -9 35.6875 C-7.82563314 33.00930865 -7.82563314 33.00930865 -8 30 C-10.97 29.67 -13.94 29.34 -17 29 Z M9 30 C9.57352893 33.87132028 11.48704352 36.08172796 14 39 C17.35622898 34.4947161 17.35622898 34.4947161 18 29 C14.72724974 29 12.153368 29.29925156 9 30 Z M5 34 C4.34 37.3 3.68 40.6 3 44 C7.7517398 43.56802365 9.92000054 42.67230705 13 39 C10.36 37.35 7.72 35.7 5 34 Z " fill="#3EAE6E" transform="translate(46,33)"/>
<path d="M0 0 C5.61 0 11.22 0 17 0 C17 17.82 17 35.64 17 54 C11.39 54 5.78 54 0 54 C0 36.18 0 18.36 0 0 Z " fill="#FFFFFF" transform="translate(382,38)"/>
<path d="M0 0 C5.61 0 11.22 0 17 0 C17 17.82 17 35.64 17 54 C11.39 54 5.78 54 0 54 C0 36.18 0 18.36 0 0 Z " fill="#FFFFFF" transform="translate(236,38)"/>
<path d="M0 0 C3.05067422 1.99227704 4.59426669 3.33682874 5.47265625 6.9375 C5.7595293 10.82131981 5.20766662 12.67845169 3.0625 16 C-1.03397426 18.67524849 -4.23124644 18.95893414 -9 18 C-11.87029869 16.20606332 -13.49131638 15.01736724 -15 12 C-15.43023798 8.12785818 -15.31669086 6.47503629 -13.125 3.1875 C-9.28853527 -0.76180193 -5.28470097 -0.78359359 0 0 Z " fill="#FFFFFF" transform="translate(395,13)"/>
<path d="M0 0 C3.05067422 1.99227704 4.59426669 3.33682874 5.47265625 6.9375 C5.7595293 10.82131981 5.20766662 12.67845169 3.0625 16 C-1.03397426 18.67524849 -4.23124644 18.95893414 -9 18 C-11.87029869 16.20606332 -13.49131638 15.01736724 -15 12 C-15.43023798 8.12785818 -15.31669086 6.47503629 -13.125 3.1875 C-9.28853527 -0.76180193 -5.28470097 -0.78359359 0 0 Z " fill="#FFFFFF" transform="translate(249,13)"/>
<path d="M0 0 C1 1 1 1 1.1875 3.4375 C1 6 1 6 -1 8 C-3.5 8.3125 -3.5 8.3125 -6 8 C-8 5 -8 5 -7.75 2.375 C-7.5025 1.59125 -7.255 0.8075 -7 0 C-4.31633121 -1.3418344 -2.84719317 -0.73004953 0 0 Z " fill="#FFFFFF" transform="translate(50,56)"/>
<path d="M0 0 C0.99 0 1.98 0 3 0 C5.1875 3 5.1875 3 7 6 C6.67 6.66 6.34 7.32 6 8 C3.69 6.35 1.38 4.7 -1 3 C-0.67 2.01 -0.34 1.02 0 0 Z " fill="#FFFFFF" transform="translate(52,64)"/>
<path d="M0 0 C0 3.57575896 -1.08840607 5.05295935 -3 8 C-4.32 7.67 -5.64 7.34 -7 7 C-5.54744301 3.17053157 -3.57104439 1.87949705 0 0 Z " fill="#FFFFFF" transform="translate(58,47)"/>
<path d="M0 0 C0.99 0.33 1.98 0.66 3 1 C3 1.99 3 2.98 3 4 C0.69 5.32 -1.62 6.64 -4 8 C-3.40072174 4.64404172 -2.15377564 2.62198774 0 0 Z " fill="#FFFFFF" transform="translate(39,64)"/>
<path d="M0 0 C2.91517292 1.07401108 4.77810176 1.77810176 7 4 C7 4.99 7 5.98 7 7 C4.20171644 6.61402985 3.1794116 6.19863427 1.25 4.0625 C0 2 0 2 0 0 Z " fill="#FDFEFD" transform="translate(35,48)"/>
</svg>
