<?xml version="1.0" encoding="UTF-8"?>
<svg version="1.1" xmlns="http://www.w3.org/2000/svg" width="845" height="100">
<path d="M0 0 C15 0 15 0 18.35180664 2.79467773 C19.44239807 4.64805603 19.44239807 4.64805603 20.41015625 6.68359375 C20.79642685 7.37252213 21.18269745 8.0614505 21.58067322 8.77125549 C22.7972656 10.96799205 23.9294155 13.19674734 25.0625 15.4375 C25.8533519 16.90590078 26.64954233 18.37143946 27.45117188 19.83398438 C28.97890815 22.6302313 30.48042865 25.43813532 31.96533203 28.25732422 C34.3426953 32.71062379 37.05084518 36.90407185 40 41 C40.40726318 40.32122803 40.81452637 39.64245605 41.23413086 38.94311523 C41.80526611 37.99122314 42.37640137 37.03933105 42.96484375 36.05859375 C43.59632324 35.00607422 44.22780273 33.95355469 44.87841797 32.86914062 C46.2534921 30.57732298 47.62884248 28.28567144 49.00439453 25.99414062 C51.99570028 21.01048735 54.98638937 16.02650483 57.96484375 11.03515625 C58.58854858 9.99113647 58.58854858 9.99113647 59.22485352 8.92602539 C59.9752477 7.66942175 60.72448852 6.41212843 61.47241211 5.15405273 C63.88824342 1.11175658 63.88824342 1.11175658 65 0 C67.35313555 -0.07271741 69.70833668 -0.08370868 72.0625 -0.0625 C73.99802734 -0.04896484 73.99802734 -0.04896484 75.97265625 -0.03515625 C76.97167969 -0.02355469 77.97070312 -0.01195313 79 0 C80.4278535 2.85570699 80.11941486 5.27714356 80.11352539 8.46923828 C80.11367142 9.13277313 80.11381744 9.79630798 80.1139679 10.47994995 C80.11327031 12.67677053 80.10548514 14.8735067 80.09765625 17.0703125 C80.09579152 18.59203037 80.09436788 20.11374884 80.09336853 21.63546753 C80.08954767 25.64351047 80.07972104 29.65151726 80.06866455 33.6595459 C80.05844118 37.74828604 80.05386892 41.83703201 80.04882812 45.92578125 C80.0380984 53.95053744 80.02102713 61.97526422 80 70 C77.35409986 70.02684679 74.70846904 70.04676357 72.0625 70.0625 C71.30775391 70.07087891 70.55300781 70.07925781 69.77539062 70.08789062 C67.85005687 70.09652441 65.92464419 70.05224333 64 70 C61.96876925 67.96876925 62.74330382 63.82231134 62.68359375 61.02734375 C62.66281265 60.22970108 62.64203156 59.43205841 62.62062073 58.61024475 C62.55503842 56.05275389 62.49620033 53.4951572 62.4375 50.9375 C62.39432301 49.20767118 62.35070899 47.47785321 62.30664062 45.74804688 C62.19934828 41.4988074 62.09810574 37.2494611 62 33 C61.23538452 34.30988892 61.23538452 34.30988892 60.45532227 35.64624023 C58.56901659 38.87680389 56.68069305 42.10618408 54.79174805 45.33520508 C53.97348558 46.7346208 53.15577544 48.13435962 52.33862305 49.53442383 C51.16599236 51.54332722 49.99139954 53.55107155 48.81640625 55.55859375 C48.44971329 56.18777206 48.08302032 56.81695038 47.70521545 57.4651947 C44.57341512 62.80816832 44.57341512 62.80816832 42.25 63.58544922 C39.3928588 64.02257694 37.74629089 63.97643547 35 63 C31.26246635 58.81024369 28.69664913 54.02487892 26 49.125 C25.23352944 47.79120523 24.46402647 46.45914818 23.69140625 45.12890625 C19.02321698 37.04643395 19.02321698 37.04643395 17 33 C16.67 45.21 16.34 57.42 16 70 C10.72 70 5.44 70 0 70 C0 46.9 0 23.8 0 0 Z " fill="#FFFFFF" transform="translate(80,17)"/>
<path d="M0 0 C7.47335981 7.994757 8.6875 16.08828866 8.6875 26.875 C-4.5125 27.205 -17.7125 27.535 -31.3125 27.875 C-29.14635736 32.20728528 -28.59858821 32.99983641 -24.3125 34.875 C-17.37975943 36.43814805 -12.73504219 35.75407064 -6.3125 32.875 C-4.3325 32.38 -4.3325 32.38 -2.3125 31.875 C-0.0025 34.515 2.3075 37.155 4.6875 39.875 C2.14603163 44.95793674 -0.78570299 46.84665238 -6 48.96875 C-14.75947583 51.36521037 -25.92154571 51.20301869 -34.16796875 47.19921875 C-41.60081267 42.60953917 -46.41061913 37.34650069 -48.89453125 28.89453125 C-50.37442325 21.74402504 -49.40033182 14.46375151 -46.3125 7.875 C-35.23786175 -8.36780277 -16.11765353 -10.33962679 0 0 Z M-30.3125 10.875 C-30.9725 12.855 -31.6325 14.835 -32.3125 16.875 C-24.0625 16.875 -15.8125 16.875 -7.3125 16.875 C-8.72353898 11.0391077 -8.72353898 11.0391077 -11.875 8.5 C-18.61982218 5.31153861 -24.68262403 5.65706618 -30.3125 10.875 Z " fill="#FFFFFF" transform="translate(508.3125,38.125)"/>
<path d="M0 0 C4.01715935 3.28941309 5.78088606 8.44901472 6.38726807 13.49491882 C6.46895746 15.80458614 6.46326166 18.0956193 6.41796875 20.40625 C6.41372391 21.23838013 6.40947906 22.07051025 6.40510559 22.92785645 C6.38846307 25.55641593 6.35083976 28.18417667 6.3125 30.8125 C6.29743444 32.60675967 6.28374933 34.4010315 6.27148438 36.1953125 C6.23860714 40.56801083 6.18692722 44.94012053 6.125 49.3125 C1.175 49.3125 -3.775 49.3125 -8.875 49.3125 C-9.37 47.3325 -9.37 47.3325 -9.875 45.3125 C-10.638125 45.951875 -11.40125 46.59125 -12.1875 47.25 C-17.95158856 51.67360285 -24.91624757 50.74496484 -31.875 50.3125 C-37.03948209 49.19893595 -40.52074814 46.33760223 -43.875 42.3125 C-46.09703751 38.29167022 -46.33762478 34.86164366 -45.875 30.3125 C-44.44427389 25.73760334 -42.60398039 22.38580478 -38.4375 19.875 C-33.86826171 17.87094812 -29.97553742 17.18281911 -25.01171875 17.21484375 C-23.68237305 17.21967773 -23.68237305 17.21967773 -22.32617188 17.22460938 C-21.41416016 17.23298828 -20.50214844 17.24136719 -19.5625 17.25 C-18.63115234 17.25451172 -17.69980469 17.25902344 -16.74023438 17.26367188 C-14.45175627 17.27540766 -12.16341192 17.29182637 -9.875 17.3125 C-11.92310356 12.80952926 -11.92310356 12.80952926 -15.375 9.375 C-21.5591404 7.49767166 -27.51004847 8.25671807 -33.375 10.875 C-34.2 11.349375 -35.025 11.82375 -35.875 12.3125 C-36.865 12.3125 -37.855 12.3125 -38.875 12.3125 C-39.71319158 10.69000059 -40.5454116 9.06441503 -41.375 7.4375 C-41.8390625 6.53257813 -42.303125 5.62765625 -42.78125 4.6953125 C-43.875 2.3125 -43.875 2.3125 -43.875 0.3125 C-30.46478362 -6.87154449 -12.94389281 -9.85561963 0 0 Z M-29.875 32.3125 C-29.03146064 34.98370799 -28.41688875 36.85397875 -26.25 38.6875 C-21.33750572 39.98026165 -17.25370216 39.0751863 -12.9375 36.6875 C-10.28478829 33.63286228 -10.31239328 31.26285191 -9.875 27.3125 C-12.27274745 27.17677845 -14.66275245 27.07813132 -17.0625 27 C-17.73603516 26.95810547 -18.40957031 26.91621094 -19.10351562 26.87304688 C-24.4704759 26.7421454 -26.55327005 28.21677472 -29.875 32.3125 Z " fill="#FFFFFF" transform="translate(211.875,37.6875)"/>
<path d="M0 0 C4.93433831 2.82420664 8.37360464 6.33686425 10.11399841 11.90020752 C10.50745954 13.976871 10.62038289 15.85957114 10.61352539 17.97167969 C10.61344986 18.75218689 10.61337433 19.53269409 10.61329651 20.33685303 C10.60813522 21.16928528 10.60297394 22.00171753 10.59765625 22.859375 C10.5962413 23.71936096 10.59482635 24.57934692 10.59336853 25.46539307 C10.58778097 28.20613109 10.57523075 30.94678676 10.5625 33.6875 C10.55748339 35.5481759 10.55292077 37.40885309 10.54882812 39.26953125 C10.53781561 43.82555246 10.52055951 48.38151228 10.5 52.9375 C5.22 52.9375 -0.06 52.9375 -5.5 52.9375 C-5.53738281 50.69710937 -5.57476562 48.45671875 -5.61328125 46.1484375 C-5.65957397 43.96393411 -5.71077914 41.77959684 -5.76245117 39.59521484 C-5.79557926 38.08425096 -5.82364855 36.57316693 -5.84643555 35.06201172 C-5.88020681 32.88196918 -5.93252896 30.70301561 -5.98828125 28.5234375 C-6.01446533 27.2142334 -6.04064941 25.9050293 -6.06762695 24.55615234 C-6.53091718 20.67874539 -7.40593582 18.2200871 -9.5 14.9375 C-13.53309171 13.07607306 -15.86633901 12.83188984 -20.25 13.5625 C-23.61408537 14.98576689 -24.78054654 15.78516865 -26.5 18.9375 C-27.66402727 22.42958181 -27.71118508 25.32897772 -27.81640625 29.01171875 C-27.83718735 29.6955513 -27.85796844 30.37938385 -27.87937927 31.0839386 C-27.94466154 33.2641921 -28.00366017 35.44456405 -28.0625 37.625 C-28.10570553 39.10482986 -28.14932047 40.58464783 -28.19335938 42.06445312 C-28.30109025 45.68868254 -28.40032107 49.31300438 -28.5 52.9375 C-34.11 52.9375 -39.72 52.9375 -45.5 52.9375 C-45.5 35.1175 -45.5 17.2975 -45.5 -1.0625 C-40.22 -1.0625 -34.94 -1.0625 -29.5 -1.0625 C-29.17 0.2575 -28.84 1.5775 -28.5 2.9375 C-27.92894531 2.5765625 -27.35789062 2.215625 -26.76953125 1.84375 C-18.07860302 -3.13039016 -9.30208065 -4.16655696 0 0 Z " fill="#FFFFFF" transform="translate(297.5,34.0625)"/>
<path d="M0 0 C5.19884433 5.19884433 6.6487106 11.37695402 6.86352539 18.53051758 C6.86336851 19.98519841 6.85780505 21.43988581 6.84765625 22.89453125 C6.8462413 23.66431808 6.84482635 24.43410492 6.84336853 25.22721863 C6.83779606 27.67235288 6.82524871 30.11739368 6.8125 32.5625 C6.80748144 34.22591013 6.80291915 35.8893217 6.79882812 37.55273438 C6.78868892 41.61855407 6.76910832 45.68417311 6.75 49.75 C1.14 49.75 -4.47 49.75 -10.25 49.75 C-10.30607422 46.26373047 -10.30607422 46.26373047 -10.36328125 42.70703125 C-10.4095442 40.44643959 -10.46076028 38.1860104 -10.51245117 35.92553711 C-10.54562532 34.35923199 -10.57368058 32.79280949 -10.59643555 31.22631836 C-10.63012116 28.96938237 -10.68244049 26.71351474 -10.73828125 24.45703125 C-10.74467117 23.76100296 -10.7510611 23.06497467 -10.75764465 22.34785461 C-10.88752544 18.01520215 -11.53571496 15.16609843 -14.25 11.75 C-18.10884662 10.07540618 -20.36868942 9.56356891 -24.5 10.4375 C-28.04484316 12.12935696 -29.58932688 13.39079151 -31.30224609 16.91479492 C-32.43686137 20.30899563 -32.57273666 23.22385252 -32.6640625 26.80078125 C-32.68342865 27.45958786 -32.7027948 28.11839447 -32.7227478 28.79716492 C-32.78215941 30.88548143 -32.82877291 32.97385424 -32.875 35.0625 C-32.91321532 36.48504905 -32.95226909 37.90757584 -32.9921875 39.33007812 C-33.08939621 42.80326448 -33.1692642 46.27623597 -33.25 49.75 C-38.53 49.75 -43.81 49.75 -49.25 49.75 C-49.25 31.93 -49.25 14.11 -49.25 -4.25 C-43.97 -4.25 -38.69 -4.25 -33.25 -4.25 C-33.25 -2.93 -33.25 -1.61 -33.25 -0.25 C-31.64125 -1.2090625 -31.64125 -1.2090625 -30 -2.1875 C-20.23394256 -8.0095727 -8.96629194 -6.20743288 0 0 Z " fill="#FFFFFF" transform="translate(448.25,37.25)"/>
<path d="M0 0 C5.18159987 2.74797175 11.45854401 7.10458803 14.125 12.4375 C14.22750586 25.20972994 10.01231818 36.43557792 2.125 46.4375 C-0.62820057 49.19542304 -3.33541559 51.76151304 -6.875 53.4375 C-13.05712589 53.15693404 -16.86505769 48.73740287 -20.875 44.4375 C-26.36797235 37.03444439 -29.89711181 28.62964902 -30.875 19.4375 C-31.060625 18.15875 -31.24625 16.88 -31.4375 15.5625 C-31.35903104 11.82452424 -30.13658923 10.03728832 -27.625 7.3125 C-19.17170335 -0.26994193 -10.83226395 -4.69398104 0 0 Z " fill="#FFFFFF" transform="translate(50.875,25.5625)"/>
<path d="M0 0 C5.61 0 11.22 0 17 0 C17 18.48 17 36.96 17 56 C28.88 56 40.76 56 53 56 C53 60.62 53 65.24 53 70 C35.51 70 18.02 70 0 70 C0 46.9 0 23.8 0 0 Z " fill="#FFFFFF" transform="translate(318,17)"/>
<path d="M0 0 C2.97 0 5.94 0 9 0 C16.53494973 15.96957085 24.03381694 31.95632028 31.37960815 48.01394653 C32.04079393 49.45772232 32.70380648 50.90066298 33.36868286 52.34274292 C34.30055351 54.36544815 35.2254161 56.39121302 36.1484375 58.41796875 C36.67614746 59.57063232 37.20385742 60.7232959 37.74755859 61.91088867 C38.85626492 64.64548148 39.55231165 67.09410183 40 70 C37.03 70 34.06 70 31 70 C29.82887054 67.37690901 28.66294036 64.75171858 27.5 62.125 C27.16613281 61.37863281 26.83226562 60.63226563 26.48828125 59.86328125 C26.17246094 59.14785156 25.85664062 58.43242188 25.53125 57.6953125 C25.23798828 57.03547363 24.94472656 56.37563477 24.64257812 55.69580078 C24 54 24 54 24 52 C11.13 52.33 -1.74 52.66 -15 53 C-17.31 58.28 -19.62 63.56 -22 69 C-23 70 -23 70 -25.06640625 70.09765625 C-26.30197266 70.08025391 -26.30197266 70.08025391 -27.5625 70.0625 C-28.80193359 70.04896484 -28.80193359 70.04896484 -30.06640625 70.03515625 C-31.02353516 70.01775391 -31.02353516 70.01775391 -32 70 C-26.10772855 55.72053134 -19.68706229 41.69809848 -13.1875 27.6875 C-12.55538101 26.32360641 -12.55538101 26.32360641 -11.91049194 24.93215942 C-10.68564013 22.29116095 -9.4586054 19.6511911 -8.23046875 17.01171875 C-7.86401245 16.22270172 -7.49755615 15.43368469 -7.11999512 14.62075806 C-4.82674053 9.70469707 -2.44537996 4.84225821 0 0 Z M4 10 C-0.01626776 17.80662046 -3.83819335 25.67985336 -7.4375 33.6875 C-7.79134766 34.46528809 -8.14519531 35.24307617 -8.50976562 36.04443359 C-8.99799805 37.14198975 -8.99799805 37.14198975 -9.49609375 38.26171875 C-9.78669678 38.91100342 -10.0772998 39.56028809 -10.37670898 40.22924805 C-11.16601204 42.15876105 -11.16601204 42.15876105 -11 45 C-0.77 45 9.46 45 20 45 C18.497696 40.49308801 16.90538782 36.37860439 14.9609375 32.0703125 C14.67521881 31.43511688 14.38950012 30.79992126 14.09512329 30.14547729 C13.19112893 28.13741538 12.28313664 26.13119146 11.375 24.125 C10.7575463 22.75532831 10.14035619 21.38553775 9.5234375 20.015625 C8.01866963 16.67570388 6.51031328 13.33741779 5 10 C4.67 10 4.34 10 4 10 Z " fill="#FFFFFF" transform="translate(550,17)"/>
<path d="M0 0 C5.97966704 3.50223427 10.66699304 9.2398825 12.4375 16 C12.92740441 19.3250959 13.35655864 22.63782058 13.4375 26 C12.4375 27 12.4375 27 10.68479919 27.12025452 C9.92312943 27.11803391 9.16145966 27.11581329 8.37670898 27.11352539 C7.51589218 27.11344986 6.65507538 27.11337433 5.76817322 27.11329651 C4.83276199 27.10813522 3.89735077 27.10297394 2.93359375 27.09765625 C1.98057877 27.0962413 1.02756378 27.09482635 0.04566956 27.09336853 C-3.01125165 27.08775152 -6.06810077 27.07519616 -9.125 27.0625 C-11.19205624 27.05748719 -13.25911362 27.05292391 -15.32617188 27.04882812 C-20.40497588 27.03777656 -25.4837257 27.02050055 -30.5625 27 C-30.11343929 28.44219748 -29.65610012 29.88181889 -29.1953125 31.3203125 C-28.81463623 32.52324951 -28.81463623 32.52324951 -28.42626953 33.75048828 C-26.85770816 37.83548673 -24.45486155 40.04070385 -20.58984375 42 C-14.86859339 44.26024706 -9.51405182 44.63883311 -3.5625 43 C-1.33328208 41.76069296 0.64744992 40.44278421 2.6484375 38.86328125 C4.4375 38 4.4375 38 6.6171875 38.72265625 C8.4375 40 8.4375 40 9.1875 42.125 C9.27 42.74375 9.3525 43.3625 9.4375 44 C3.34564518 49.77945201 -2.64139611 52.10411134 -11.0625 52.375 C-19.78040523 52.08318727 -27.41106581 49.35246145 -33.5625 43 C-39.01314601 35.29064956 -40.54482293 26.62784567 -39 17.375 C-37.13664483 10.48922394 -33.39867431 4.86047635 -27.375 1 C-19.39621897 -3.53232532 -8.3602586 -3.7978004 0 0 Z M-27.9375 11.3125 C-30.09826021 14.49031954 -30.09826021 14.49031954 -30.5625 21 C-18.6825 21 -6.8025 21 5.4375 21 C3.44126665 13.29135468 3.44126665 13.29135468 -1.0625 8.5 C-1.6503125 8.0359375 -2.238125 7.571875 -2.84375 7.09375 C-11.3462973 1.68303808 -21.30388125 4.85345016 -27.9375 11.3125 Z " fill="#FFFFFF" transform="translate(732.5625,36)"/>
<path d="M0 0 C1.1753833 0.01160156 1.1753833 0.01160156 2.37451172 0.0234375 C8.5338346 0.2069555 13.70964111 1.45215982 19.125 4.5 C18.3125 7.4375 18.3125 7.4375 17.125 10.5 C16.135 10.83 15.145 11.16 14.125 11.5 C13.196875 11.025625 12.26875 10.55125 11.3125 10.0625 C5.69895231 7.43641975 -0.83053559 7.93310139 -6.875 8.5 C-10.08838287 9.70358238 -10.08838287 9.70358238 -11.875 12.5 C-12.37510524 15.45769177 -12.37510524 15.45769177 -11.875 18.5 C-6.96545187 22.48397758 -0.39610605 23.13277715 5.64453125 24.34179688 C11.56794455 25.67345144 16.29844036 27.58304533 20.125 32.5 C21.62809903 37.09436883 21.35515253 40.57938986 20.1875 45.25 C17.17465887 49.99750724 13.20858262 52.69735411 7.75390625 54.1171875 C-2.96402442 55.67789657 -13.80459864 54.84928095 -22.875 48.5 C-22.625 46.125 -22.625 46.125 -21.875 43.5 C-20.07421875 42.22265625 -20.07421875 42.22265625 -17.875 41.5 C-15.91015625 42.14453125 -15.91015625 42.14453125 -13.9375 43.3125 C-5.65400973 47.84324882 2.31724655 47.01650099 11.125 44.5 C12.05880961 39.96859347 12.05880961 39.96859347 11.125 35.5 C5.44297674 32.56001119 -0.41160612 31.35628809 -6.64648438 30.12695312 C-12.72775669 28.81874063 -17.29984551 26.86273174 -20.875 21.5 C-21.56984389 16.35330749 -21.45952659 11.8395401 -19.375 7.0625 C-13.8328209 1.38176643 -7.75938779 -0.18637174 0 0 Z " fill="#FFFFFF" transform="translate(814.875,33.5)"/>
<path d="M0 0 C0.80042725 0.00418945 1.60085449 0.00837891 2.42553711 0.01269531 C8.23197808 0.12380075 13.00035694 0.63995444 18.25 3.3125 C19.29682195 5.97713769 19.42957531 6.88151925 18.3125 9.5625 C17.7865625 10.42875 17.7865625 10.42875 17.25 11.3125 C14.92057077 10.77493941 12.75747318 10.12911983 10.51171875 9.29296875 C7.08101255 8.26170258 4.26151272 8.01265884 0.6875 8 C-0.40691406 7.98324219 -1.50132812 7.96648438 -2.62890625 7.94921875 C-6.11744148 8.35526853 -7.98262454 9.17566578 -10.75 11.3125 C-11.90811388 14.25979537 -11.90811388 14.25979537 -11.75 17.3125 C-9.31804133 20.89785083 -5.78195847 21.28745254 -1.75 22.25 C16.64296875 26.84824219 16.64296875 26.84824219 20.25 31.3125 C21.90112454 36.26587361 22.10967138 41.2764362 20.0625 46.125 C16.20769633 50.77734926 12.26501371 53.46210151 6.25 54.3125 C-4.13327326 55.16485825 -13.90602929 54.20848047 -22.75 48.3125 C-21.9375 45.375 -21.9375 45.375 -20.75 42.3125 C-17.1486159 41.11203863 -16.60032966 41.57962377 -13.3125 43.1875 C-6.3844377 46.54016636 0.7725834 47.76302867 8.25 45.25 C11.636039 43.54532482 11.636039 43.54532482 12.1875 39.625 C12.208125 38.531875 12.22875 37.43875 12.25 36.3125 C9.37804339 33.90802336 7.18031787 32.83762554 3.51171875 32.13671875 C2.60873047 31.94787109 1.70574219 31.75902344 0.77539062 31.56445312 C-1.10304323 31.19083483 -2.98327033 30.82611236 -4.86523438 30.47070312 C-11.06761302 29.15264256 -15.61972891 27.29248203 -19.75 22.3125 C-21.34631321 17.52356036 -21.58175756 13.14236662 -19.5 8.5625 C-13.84129279 1.2870193 -8.92074678 -0.06262112 0 0 Z " fill="#FFFFFF" transform="translate(769.75,33.6875)"/>
<path d="M0 0 C5.61 0 11.22 0 17 0 C17 17.82 17 35.64 17 54 C11.39 54 5.78 54 0 54 C0 36.18 0 18.36 0 0 Z " fill="#FFFFFF" transform="translate(373,33)"/>
<path d="M0 0 C5.61 0 11.22 0 17 0 C17 17.82 17 35.64 17 54 C11.39 54 5.78 54 0 54 C0 36.18 0 18.36 0 0 Z " fill="#FFFFFF" transform="translate(227,33)"/>
<path d="M0 0 C3.23087263 1.80172587 5.11491296 3.69015542 7.1875 6.75 C6.5 8.6875 6.5 8.6875 5.1875 10.75 C2.8125 11.75 2.8125 11.75 0.1875 11.75 C-1.8125 9.9375 -1.8125 9.9375 -3.8125 7.75 C-8.42997349 5.03383912 -13.61787606 5.11747349 -18.8125 5.75 C-23.48173262 7.15476058 -26.20546293 8.9873124 -29.25 12.8125 C-32.4489787 18.82657995 -33.09699086 25.53351912 -31.09375 32.109375 C-28.59981199 37.45927428 -25.45907696 40.45748567 -20.125 43.0625 C-14.10108913 44.31274565 -8.7999292 43.89093158 -3.4375 40.8125 C-2.138125 39.7915625 -2.138125 39.7915625 -0.8125 38.75 C0.5066582 38.05570621 1.83399406 37.37469505 3.1875 36.75 C4.5075 37.74 5.8275 38.73 7.1875 39.75 C6.94623283 43.00710685 5.98480672 43.95269328 3.625 46.3125 C-3.48288952 51.75684091 -11.00274384 52.78177324 -19.8125 51.75 C-28.56094024 49.38391699 -34.06132402 45.42279146 -38.796875 37.75 C-42.29157891 30.86812153 -42.05954972 21.03917998 -39.94140625 13.75390625 C-36.44434131 6.22088439 -31.40016658 1.5164285 -23.73046875 -1.63696289 C-16.38080869 -3.98612231 -6.90224432 -3.28871641 0 0 Z " fill="#FFFFFF" transform="translate(682.8125,36.25)"/>
<path d="M0 0 C3.23087263 1.80172587 5.11491296 3.69015542 7.1875 6.75 C6.5 8.6875 6.5 8.6875 5.1875 10.75 C2.8125 11.75 2.8125 11.75 0.1875 11.75 C-1.8125 9.9375 -1.8125 9.9375 -3.8125 7.75 C-8.42997349 5.03383912 -13.61787606 5.11747349 -18.8125 5.75 C-23.48173262 7.15476058 -26.20546293 8.9873124 -29.25 12.8125 C-32.4489787 18.82657995 -33.09699086 25.53351912 -31.09375 32.109375 C-28.59981199 37.45927428 -25.45907696 40.45748567 -20.125 43.0625 C-14.10108913 44.31274565 -8.7999292 43.89093158 -3.4375 40.8125 C-2.138125 39.7915625 -2.138125 39.7915625 -0.8125 38.75 C0.5066582 38.05570621 1.83399406 37.37469505 3.1875 36.75 C4.5075 37.74 5.8275 38.73 7.1875 39.75 C6.94623283 43.00710685 5.98480672 43.95269328 3.625 46.3125 C-3.48288952 51.75684091 -11.00274384 52.78177324 -19.8125 51.75 C-28.56094024 49.38391699 -34.06132402 45.42279146 -38.796875 37.75 C-42.29157891 30.86812153 -42.05954972 21.03917998 -39.94140625 13.75390625 C-36.44434131 6.22088439 -31.40016658 1.5164285 -23.73046875 -1.63696289 C-16.38080869 -3.98612231 -6.90224432 -3.28871641 0 0 Z " fill="#FFFFFF" transform="translate(630.8125,36.25)"/>
<path d="M0 0 C4.95888703 2.99651339 9.10614031 6.70887011 13.109375 10.87890625 C13.8725 11.62914063 14.635625 12.379375 15.421875 13.15234375 C17.72223238 16.86912488 17.26127904 19.80622162 16.609375 23.94140625 C16.44924927 25.07195435 16.44924927 25.07195435 16.28588867 26.2253418 C13.55144497 44.03238785 5.27885624 58.63027093 -9.203125 69.56640625 C-12.47399699 71.16380885 -13.4619557 70.91157668 -16.890625 69.87890625 C-30.42677669 61.62030799 -38.6650704 47.01208785 -42.37109375 31.90625 C-43.52030995 25.20968943 -44.66647381 17.79200467 -41.77734375 11.42578125 C-30.94045804 -2.23461067 -15.27073184 -7.88228074 0 0 Z M-38.21484375 14.1328125 C-41.40048548 19.35310653 -40.08811057 25.05976097 -38.72387695 30.76318359 C-38.46610474 31.74859131 -38.46610474 31.74859131 -38.203125 32.75390625 C-38.02160889 33.45080566 -37.84009277 34.14770508 -37.65307617 34.86572266 C-34.34696638 46.98110589 -28.06761175 56.28964452 -18.078125 64.06640625 C-15.21076591 66.11431005 -15.21076591 66.11431005 -12.92578125 65.64453125 C-3.39089455 62.05751053 3.54941695 52.48868711 7.921875 43.69140625 C11.50926099 35.14248302 14.31661076 25.05239343 12.109375 15.87890625 C6.88877533 7.89903182 -2.17714937 3.15172137 -10.890625 -0.12109375 C-21.15170051 -1.18932888 -31.31198034 7.43877521 -38.21484375 14.1328125 Z " fill="#FFFFFF" transform="translate(55.890625,18.12109375)"/>
<path d="M0 0 C3.05067422 1.99227704 4.59426669 3.33682874 5.47265625 6.9375 C5.7595293 10.82131981 5.20766662 12.67845169 3.0625 16 C-1.03397426 18.67524849 -4.23124644 18.95893414 -9 18 C-11.87029869 16.20606332 -13.49131638 15.01736724 -15 12 C-15.43023798 8.12785818 -15.31669086 6.47503629 -13.125 3.1875 C-9.28853527 -0.76180193 -5.28470097 -0.78359359 0 0 Z " fill="#FFFFFF" transform="translate(386,8)"/>
<path d="M0 0 C3.05067422 1.99227704 4.59426669 3.33682874 5.47265625 6.9375 C5.7595293 10.82131981 5.20766662 12.67845169 3.0625 16 C-1.03397426 18.67524849 -4.23124644 18.95893414 -9 18 C-11.87029869 16.20606332 -13.49131638 15.01736724 -15 12 C-15.43023798 8.12785818 -15.31669086 6.47503629 -13.125 3.1875 C-9.28853527 -0.76180193 -5.28470097 -0.78359359 0 0 Z " fill="#FFFFFF" transform="translate(240,8)"/>
</svg>
