<?xml version="1.0" encoding="UTF-8"?>
<svg version="1.1" xmlns="http://www.w3.org/2000/svg" width="878" height="100">
<path d="M0 0 C4.62 0 9.24 0 14 0 C17.30122609 3.50692047 18.87242392 5.83849455 21 10 C21.68565946 11.1759646 22.38096698 12.34634267 23.08447266 13.51171875 C25.37681029 17.31309969 27.59828715 21.15272751 29.8125 25 C30.95533022 26.98206228 32.09949445 28.96330291 33.2474823 30.94238281 C34.27616206 32.71616323 35.29996577 34.49276883 36.32348633 36.26953125 C37.86905397 39.02411829 37.86905397 39.02411829 40 41 C42.29306174 37.08978321 44.58593964 33.17945869 46.87866211 29.26904297 C47.65530681 27.94447055 48.43199794 26.61992535 49.20874023 25.29541016 C49.96314014 24.00898032 50.71659149 22.72199375 51.46908569 21.43444824 C52.22263667 20.15324245 52.98344587 18.87627858 53.75137329 17.6036377 C55.57567989 14.56056156 57.16242536 11.62985138 58.59326172 8.36914062 C60.12109375 5.046875 60.12109375 5.046875 64 0 C68.95 0 73.9 0 79 0 C79 23.1 79 46.2 79 70 C73.72 70 68.44 70 63 70 C62.67 57.79 62.34 45.58 62 33 C56.44423482 42.85232472 56.44423482 42.85232472 50.96313477 52.74609375 C45.64898768 62.10259174 45.64898768 62.10259174 41.63134766 64.2890625 C38.81241019 64.62315879 37.49104597 64.36779272 35 63 C32.09807002 60.01160012 30.2227726 56.64841155 28.25 53 C27.71246094 52.06542969 27.17492187 51.13085938 26.62109375 50.16796875 C25.60452995 48.39949401 24.60172386 46.62297835 23.61816406 44.8359375 C21.52063168 41.15987593 19.24315881 37.5890541 17 34 C16.67 45.88 16.34 57.76 16 70 C10.72 70 5.44 70 0 70 C0 46.9 0 23.8 0 0 Z " fill="#090801" transform="translate(124,14)"/>
<path d="M0 0 C1.27787132 -0.00786278 1.27787132 -0.00786278 2.58155823 -0.0158844 C4.38289297 -0.02230629 6.18426964 -0.02096542 7.9855957 -0.01245117 C10.74050714 -0.00394761 13.49334072 -0.03268794 16.24804688 -0.06445312 C17.9986973 -0.06606541 19.74935139 -0.06548708 21.5 -0.0625 C22.32302109 -0.07373398 23.14604218 -0.08496796 23.9940033 -0.09654236 C27.77300811 -0.05055177 29.71792498 0.01026376 32.86743164 2.23803711 C34.31640625 4.43359375 34.31640625 4.43359375 34.31640625 8.05859375 C33.31640625 11.43359375 33.31640625 11.43359375 31.76953125 12.63671875 C28.22098178 13.78943227 24.75222726 13.64325042 21.06640625 13.55859375 C20.32132813 13.54957031 19.57625 13.54054688 18.80859375 13.53125 C16.97772566 13.50777733 15.14702387 13.471909 13.31640625 13.43359375 C13.31640625 15.08359375 13.31640625 16.73359375 13.31640625 18.43359375 C14.98703125 18.61921875 14.98703125 18.61921875 16.69140625 18.80859375 C20.31640625 19.43359375 20.31640625 19.43359375 22.31640625 21.43359375 C22.44140625 24.05859375 22.44140625 24.05859375 22.31640625 26.43359375 C23.55390625 26.35109375 24.79140625 26.26859375 26.06640625 26.18359375 C29.2967741 26.17786615 30.09564265 26.27354014 32.81640625 28.24609375 C34.31640625 30.43359375 34.31640625 30.43359375 34.31640625 33.43359375 C36.95640625 33.43359375 39.59640625 33.43359375 42.31640625 33.43359375 C42.50203125 32.22703125 42.50203125 32.22703125 42.69140625 30.99609375 C43.00078125 29.72765625 43.00078125 29.72765625 43.31640625 28.43359375 C46.14524372 27.01917501 48.1901737 27.11459043 51.31640625 27.43359375 C53.35681401 29.47400151 54.31640625 30.51684619 54.31640625 33.43359375 C57.28640625 33.43359375 60.25640625 33.43359375 63.31640625 33.43359375 C63.31640625 35.08359375 63.31640625 36.73359375 63.31640625 38.43359375 C60.34640625 38.43359375 57.37640625 38.43359375 54.31640625 38.43359375 C54.31640625 43.38359375 54.31640625 48.33359375 54.31640625 53.43359375 C57.28640625 53.43359375 60.25640625 53.43359375 63.31640625 53.43359375 C63.31640625 55.08359375 63.31640625 56.73359375 63.31640625 58.43359375 C62.37667969 58.47226563 62.37667969 58.47226563 61.41796875 58.51171875 C60.19207031 58.59679687 60.19207031 58.59679687 58.94140625 58.68359375 C58.12929687 58.73 57.3171875 58.77640625 56.48046875 58.82421875 C55.40925781 59.12585938 55.40925781 59.12585938 54.31640625 59.43359375 C53.60781679 60.74512842 52.93960017 62.07939599 52.31640625 63.43359375 C48.87890625 64.37109375 48.87890625 64.37109375 45.31640625 64.43359375 C43.37890625 63.18359375 43.37890625 63.18359375 42.31640625 61.43359375 C42.31640625 60.44359375 42.31640625 59.45359375 42.31640625 58.43359375 C40.49109375 58.52640625 40.49109375 58.52640625 38.62890625 58.62109375 C37.60216797 58.67330078 37.60216797 58.67330078 36.5546875 58.7265625 C34.04662144 59.3002099 34.04662144 59.3002099 32.19042969 61.94287109 C28.52419443 65.12015041 25.72015854 65.11281801 21.09375 64.9921875 C20.31125381 64.98985611 19.52875763 64.98752472 18.72254944 64.98512268 C17.07428021 64.97541047 15.4260431 64.9536813 13.77807617 64.9206543 C11.258448 64.87118292 8.74077355 64.85916766 6.22070312 64.85351562 C4.61586469 64.83943046 3.01104316 64.82322634 1.40625 64.8046875 C0.65512436 64.7993248 -0.09600128 64.7939621 -0.86988831 64.78843689 C-7.62572789 64.63508279 -7.62572789 64.63508279 -10.68359375 62.43359375 C-11.43359375 60.30859375 -11.43359375 60.30859375 -11.68359375 58.43359375 C-14.32359375 58.43359375 -16.96359375 58.43359375 -19.68359375 58.43359375 C-20.67359375 60.90859375 -20.67359375 60.90859375 -21.68359375 63.43359375 C-28.1525445 64.77620617 -28.1525445 64.77620617 -30.62109375 63.18359375 C-31.68359375 61.43359375 -31.68359375 61.43359375 -31.68359375 58.43359375 C-34.65359375 58.43359375 -37.62359375 58.43359375 -40.68359375 58.43359375 C-40.68359375 56.78359375 -40.68359375 55.13359375 -40.68359375 53.43359375 C-37.71359375 53.43359375 -34.74359375 53.43359375 -31.68359375 53.43359375 C-31.68359375 48.48359375 -31.68359375 43.53359375 -31.68359375 38.43359375 C-34.65359375 38.43359375 -37.62359375 38.43359375 -40.68359375 38.43359375 C-40.68359375 36.78359375 -40.68359375 35.13359375 -40.68359375 33.43359375 C-37.71359375 33.43359375 -34.74359375 33.43359375 -31.68359375 33.43359375 C-31.55984375 32.62921875 -31.43609375 31.82484375 -31.30859375 30.99609375 C-31.10234375 30.15046875 -30.89609375 29.30484375 -30.68359375 28.43359375 C-27.88489348 27.03424362 -25.77860583 27.1809397 -22.68359375 27.43359375 C-20.80859375 28.74609375 -20.80859375 28.74609375 -19.68359375 30.43359375 C-19.68359375 31.42359375 -19.68359375 32.41359375 -19.68359375 33.43359375 C-16.28278798 33.32951458 -16.28278798 33.32951458 -12.68359375 32.43359375 C-10.74817895 30.04302433 -10.74817895 30.04302433 -9.68359375 27.43359375 C-8.68359375 26.43359375 -8.68359375 26.43359375 -6.8359375 26.3359375 C-4.78515625 26.36848958 -2.734375 26.40104167 -0.68359375 26.43359375 C-0.60109375 25.48484375 -0.51859375 24.53609375 -0.43359375 23.55859375 C0.31640625 20.43359375 0.31640625 20.43359375 2.12890625 19.05859375 C4.31640625 18.43359375 4.31640625 18.43359375 8.31640625 18.43359375 C8.31640625 16.78359375 8.31640625 15.13359375 8.31640625 13.43359375 C7.2078125 13.46839844 6.09921875 13.50320312 4.95703125 13.5390625 C3.49350477 13.56720724 2.02996186 13.59450667 0.56640625 13.62109375 C-0.52800781 13.65879883 -0.52800781 13.65879883 -1.64453125 13.69726562 C-4.88739938 13.74148655 -7.26740844 13.6498533 -10.171875 12.140625 C-11.68359375 10.43359375 -11.68359375 10.43359375 -12.12109375 6.93359375 C-11.68359375 3.43359375 -11.68359375 3.43359375 -10.39732361 1.74009705 C-7.38897954 -0.55338662 -3.63820587 -0.0129453 0 0 Z M-6.68359375 5.43359375 C-6.68359375 6.42359375 -6.68359375 7.41359375 -6.68359375 8.43359375 C4.86640625 8.43359375 16.41640625 8.43359375 28.31640625 8.43359375 C28.64640625 7.44359375 28.97640625 6.45359375 29.31640625 5.43359375 C17.43640625 5.43359375 5.55640625 5.43359375 -6.68359375 5.43359375 Z M5.31640625 23.43359375 C5.31640625 24.42359375 5.31640625 25.41359375 5.31640625 26.43359375 C9.27640625 26.43359375 13.23640625 26.43359375 17.31640625 26.43359375 C17.31640625 25.44359375 17.31640625 24.45359375 17.31640625 23.43359375 C13.35640625 23.43359375 9.39640625 23.43359375 5.31640625 23.43359375 Z M-7.68359375 32.43359375 C-7.68359375 35.40359375 -7.68359375 38.37359375 -7.68359375 41.43359375 C4.52640625 41.43359375 16.73640625 41.43359375 29.31640625 41.43359375 C29.31640625 38.46359375 29.31640625 35.49359375 29.31640625 32.43359375 C25.62666487 29.97376616 23.74777531 30.1758221 19.34765625 30.16796875 C18.67093872 30.1660553 17.99422119 30.16414185 17.29699707 30.16217041 C15.86807889 30.1608111 14.43914826 30.16448981 13.01025391 30.17285156 C10.82426184 30.18355529 8.63909153 30.17294831 6.453125 30.16015625 C5.06380027 30.16147789 3.67447605 30.16404038 2.28515625 30.16796875 C0.38926758 30.17135254 0.38926758 30.17135254 -1.54492188 30.17480469 C-4.84575422 30.19181856 -4.84575422 30.19181856 -7.68359375 32.43359375 Z M-26.68359375 32.43359375 C-26.68359375 41.34359375 -26.68359375 50.25359375 -26.68359375 59.43359375 C-26.02359375 59.43359375 -25.36359375 59.43359375 -24.68359375 59.43359375 C-24.68359375 50.52359375 -24.68359375 41.61359375 -24.68359375 32.43359375 C-25.34359375 32.43359375 -26.00359375 32.43359375 -26.68359375 32.43359375 Z M47.31640625 32.43359375 C46.04335069 33.48230628 46.04335069 33.48230628 46.20288086 35.84204102 C46.20811768 36.88416748 46.21335449 37.92629395 46.21875 39 C46.22197266 40.12470703 46.22519531 41.24941406 46.22851562 42.40820312 C46.23689453 43.59220703 46.24527344 44.77621094 46.25390625 45.99609375 C46.25841797 47.18396484 46.26292969 48.37183594 46.26757812 49.59570312 C46.2794095 52.54171601 46.29589338 55.48763056 46.31640625 58.43359375 C47.30640625 58.43359375 48.29640625 58.43359375 49.31640625 58.43359375 C49.31640625 50.18359375 49.31640625 41.93359375 49.31640625 33.43359375 C48.65640625 33.10359375 47.99640625 32.77359375 47.31640625 32.43359375 Z M-19.68359375 38.43359375 C-19.68359375 43.38359375 -19.68359375 48.33359375 -19.68359375 53.43359375 C-17.37359375 53.43359375 -15.06359375 53.43359375 -12.68359375 53.43359375 C-12.68359375 48.48359375 -12.68359375 43.53359375 -12.68359375 38.43359375 C-14.99359375 38.43359375 -17.30359375 38.43359375 -19.68359375 38.43359375 Z M34.31640625 38.43359375 C34.31640625 43.38359375 34.31640625 48.33359375 34.31640625 53.43359375 C36.95640625 53.43359375 39.59640625 53.43359375 42.31640625 53.43359375 C42.31640625 48.48359375 42.31640625 43.53359375 42.31640625 38.43359375 C39.67640625 38.43359375 37.03640625 38.43359375 34.31640625 38.43359375 Z " fill="#010000" transform="translate(53.68359375,17.56640625)"/>
<path d="M0 0 C6.2919173 6.66203008 8.81759815 13.61429934 9.3125 22.6875 C9.125 25.25 9.125 25.25 8.125 27.25 C-5.075 27.25 -18.275 27.25 -31.875 27.25 C-27.576633 33.74681395 -27.576633 33.74681395 -20.875 36.25 C-15.3521148 36.8417377 -11.84679144 35.59518464 -6.875 33.25 C-4.93359375 32.40625 -4.93359375 32.40625 -2.875 32.25 C-0.734375 33.90234375 -0.734375 33.90234375 1.375 36.1875 C2.08140625 36.93902344 2.7878125 37.69054687 3.515625 38.46484375 C4.31226563 39.34849609 4.31226563 39.34849609 5.125 40.25 C3.2625431 44.4295981 1.13985251 45.97744197 -2.875 48.25 C-7.87439646 49.95696282 -12.49606857 50.60616148 -17.75 50.5625 C-18.45181396 50.55758545 -19.15362793 50.5526709 -19.87670898 50.54760742 C-28.20438663 50.35985194 -35.88267462 48.31383284 -41.875 42.25 C-48.02951749 33.69202534 -49.8184344 26.75701597 -48.875 16.25 C-46.58793293 7.65868589 -42.62544675 1.80840288 -34.93359375 -2.6796875 C-23.53480865 -8.60619057 -10.63223334 -6.47179421 0 0 Z M-30.6875 12.25 C-32.13026938 14.292265 -32.13026938 14.292265 -31.875 17.25 C-23.625 17.25 -15.375 17.25 -6.875 17.25 C-8.7850296 12.47492601 -10.32696381 9.59146779 -14.875 7.25 C-21.38640046 6.02338055 -26.18611898 7.28295888 -30.6875 12.25 Z " fill="#090102" transform="translate(551.875,34.75)"/>
<path d="M0 0 C4.74195739 3.86240078 6.77033782 8.04785131 8 14 C8.24885906 16.93089299 8.23455865 19.83765404 8.1953125 22.77734375 C8.1924826 23.58869278 8.18965271 24.40004181 8.18673706 25.23597717 C8.17562663 27.80330753 8.15053971 30.37027678 8.125 32.9375 C8.11495836 34.68814597 8.10583459 36.43879746 8.09765625 38.18945312 C8.07742683 42.45988327 8.03826194 46.72954194 8 51 C2.72 51 -2.56 51 -8 51 C-8.33 50.01 -8.66 49.02 -9 48 C-9.8971875 48.7115625 -9.8971875 48.7115625 -10.8125 49.4375 C-16.53942815 53.52816297 -24.27560594 52.50432955 -31 52 C-36.43911444 50.51071867 -39.93694335 47.77836838 -43 43 C-44.53752988 38.38741035 -44.86704551 33.67948401 -43.3515625 28.99609375 C-40.91741435 24.17980917 -37.8348951 22.24477272 -33 20 C-30.015393 19.07480218 -27.35256168 18.88235537 -24.234375 18.90234375 C-23.34492188 18.90556641 -22.45546875 18.90878906 -21.5390625 18.91210938 C-20.61867187 18.92048828 -19.69828125 18.92886719 -18.75 18.9375 C-17.81414062 18.94201172 -16.87828125 18.94652344 -15.9140625 18.95117188 C-13.60930959 18.96293082 -11.30468773 18.97936574 -9 19 C-10.73495409 13.91341759 -10.73495409 13.91341759 -14.5625 10.5 C-21.77185219 9.45136695 -27.62884387 10.42593681 -34 14 C-34.99 14 -35.98 14 -37 14 C-37.86627399 12.40233897 -38.71766465 10.79660056 -39.5625 9.1875 C-40.03816406 8.29417969 -40.51382813 7.40085937 -41.00390625 6.48046875 C-42 4 -42 4 -41 1 C-38.890625 -0.1328125 -38.890625 -0.1328125 -36.25 -1.125 C-35.38890625 -1.45757813 -34.5278125 -1.79015625 -33.640625 -2.1328125 C-22.98063097 -5.63357977 -9.88360412 -5.67639426 0 0 Z M-27 31 C-28.1577233 33.93289902 -28.2794132 35.32940831 -27.0625 38.25 C-24.02168753 40.83008331 -20.86682657 41.20467135 -17 41 C-13.63767462 39.69242902 -11.54050545 38.54050545 -9 36 C-8.83322718 32.41656024 -8.83322718 32.41656024 -9 29 C-11.24973447 28.945862 -13.49984383 28.90714509 -15.75 28.875 C-17.62945312 28.84019531 -17.62945312 28.84019531 -19.546875 28.8046875 C-22.73685047 28.98511598 -24.42809474 29.1727583 -27 31 Z " fill="#090801" transform="translate(254,33)"/>
<path d="M0 0 C5.7170015 3.70068269 9.06450104 8.68268976 10.81640625 15.17578125 C11.07316736 18.14595924 11.05015098 21.09483977 11.01171875 24.07421875 C11.00888885 24.90917877 11.00605896 25.74413879 11.00314331 26.60440063 C10.99200926 29.25334416 10.96691752 31.90194109 10.94140625 34.55078125 C10.93136768 36.35416176 10.92224337 38.15754761 10.9140625 39.9609375 C10.89209215 44.36601758 10.85760946 48.77084078 10.81640625 53.17578125 C5.53640625 53.17578125 0.25640625 53.17578125 -5.18359375 53.17578125 C-5.23257813 51.09136719 -5.2815625 49.00695312 -5.33203125 46.859375 C-5.38618058 44.82048927 -5.44343285 42.78171235 -5.50097656 40.74291992 C-5.53904668 39.33577727 -5.5739362 37.92854456 -5.60546875 36.52124023 C-5.65160155 34.48779302 -5.70950943 32.45495418 -5.76953125 30.421875 C-5.80095215 29.20169678 -5.83237305 27.98151855 -5.86474609 26.72436523 C-6.20399873 22.948686 -6.87353056 19.73373783 -8.18359375 16.17578125 C-12.00445166 13.65401503 -14.91009643 12.81280323 -19.37109375 13.61328125 C-22.44803312 14.30888262 -23.24275228 15.2496166 -25.26391602 17.7722168 C-27.50475899 21.74520317 -27.72040405 24.22642474 -27.79296875 28.76171875 C-27.809505 29.4635025 -27.82604126 30.16528625 -27.84307861 30.88833618 C-27.89130065 33.10924247 -27.91286982 35.32946553 -27.93359375 37.55078125 C-27.96177536 39.06513807 -27.99170585 40.57946341 -28.0234375 42.09375 C-28.10031813 45.78806671 -28.14106778 49.48027408 -28.18359375 53.17578125 C-33.79359375 53.17578125 -39.40359375 53.17578125 -45.18359375 53.17578125 C-45.18359375 35.35578125 -45.18359375 17.53578125 -45.18359375 -0.82421875 C-39.90359375 -0.82421875 -34.62359375 -0.82421875 -29.18359375 -0.82421875 C-28.85359375 0.49578125 -28.52359375 1.81578125 -28.18359375 3.17578125 C-27.64734375 2.72203125 -27.11109375 2.26828125 -26.55859375 1.80078125 C-19.17150536 -3.25354238 -8.17567935 -3.60139529 0 0 Z " fill="#090102" transform="translate(487.18359375,30.82421875)"/>
<path d="M0 0 C5.7170015 3.70068269 9.06450104 8.68268976 10.81640625 15.17578125 C11.07316736 18.14595924 11.05015098 21.09483977 11.01171875 24.07421875 C11.00888885 24.90917877 11.00605896 25.74413879 11.00314331 26.60440063 C10.99200926 29.25334416 10.96691752 31.90194109 10.94140625 34.55078125 C10.93136768 36.35416176 10.92224337 38.15754761 10.9140625 39.9609375 C10.89209215 44.36601758 10.85760946 48.77084078 10.81640625 53.17578125 C5.53640625 53.17578125 0.25640625 53.17578125 -5.18359375 53.17578125 C-5.23257813 51.09136719 -5.2815625 49.00695312 -5.33203125 46.859375 C-5.38618058 44.82048927 -5.44343285 42.78171235 -5.50097656 40.74291992 C-5.53904668 39.33577727 -5.5739362 37.92854456 -5.60546875 36.52124023 C-5.65160155 34.48779302 -5.70950943 32.45495418 -5.76953125 30.421875 C-5.80095215 29.20169678 -5.83237305 27.98151855 -5.86474609 26.72436523 C-6.20399873 22.948686 -6.87353056 19.73373783 -8.18359375 16.17578125 C-12.00445166 13.65401503 -14.91009643 12.81280323 -19.37109375 13.61328125 C-22.44803312 14.30888262 -23.24275228 15.2496166 -25.26391602 17.7722168 C-27.50475899 21.74520317 -27.72040405 24.22642474 -27.79296875 28.76171875 C-27.809505 29.4635025 -27.82604126 30.16528625 -27.84307861 30.88833618 C-27.89130065 33.10924247 -27.91286982 35.32946553 -27.93359375 37.55078125 C-27.96177536 39.06513807 -27.99170585 40.57946341 -28.0234375 42.09375 C-28.10031813 45.78806671 -28.14106778 49.48027408 -28.18359375 53.17578125 C-33.79359375 53.17578125 -39.40359375 53.17578125 -45.18359375 53.17578125 C-45.18359375 35.35578125 -45.18359375 17.53578125 -45.18359375 -0.82421875 C-39.90359375 -0.82421875 -34.62359375 -0.82421875 -29.18359375 -0.82421875 C-28.85359375 0.49578125 -28.52359375 1.81578125 -28.18359375 3.17578125 C-27.64734375 2.72203125 -27.11109375 2.26828125 -26.55859375 1.80078125 C-19.17150536 -3.25354238 -8.17567935 -3.60139529 0 0 Z " fill="#090801" transform="translate(341.18359375,30.82421875)"/>
<path d="M0 0 C6.208125 -0.0825 12.41625 -0.165 18.8125 -0.25 C20.74843018 -0.28641602 22.68436035 -0.32283203 24.67895508 -0.36035156 C37.07914635 -0.49722179 47.1319302 0.69699625 56.9921875 8.94921875 C64.25358754 16.36601841 66.98967361 24.75116448 67.3125 34.875 C67.10771714 44.45161009 64.40325791 52.74925208 58 60 C49.49660096 67.44770494 40.78776448 70.50886915 29.58984375 70.29296875 C28.83223755 70.28994751 28.07463135 70.28692627 27.29406738 70.28381348 C24.50840305 70.26831196 21.72293542 70.22643064 18.9375 70.1875 C9.5634375 70.0946875 9.5634375 70.0946875 0 70 C0 46.9 0 23.8 0 0 Z M8 7 C8 25.48 8 43.96 8 63 C31.41251422 64.64899571 31.41251422 64.64899571 51.5 54.82421875 C57.16782097 47.9313219 59.48125008 40.33645939 58.8125 31.53125 C57.70742068 24.07196456 54.63504262 18.08648165 48.8515625 13.17578125 C36.06373614 4.16320056 24.65117582 7 8 7 Z " fill="#090102" transform="translate(573,14)"/>
<path d="M0 0 C5.61 0 11.22 0 17 0 C17 18.48 17 36.96 17 56 C28.55 56 40.1 56 52 56 C52 60.62 52 65.24 52 70 C34.84 70 17.68 70 0 70 C0 46.9 0 23.8 0 0 Z " fill="#090102" transform="translate(362,14)"/>
<path d="M0 0 C5.20645708 3.77723356 7.52818211 7.13165208 9.1875 13.3125 C9.44342347 16.2827523 9.42124487 19.23154787 9.3828125 22.2109375 C9.3799826 23.04589752 9.37715271 23.88085754 9.37423706 24.74111938 C9.36310301 27.39006291 9.33801127 30.03865984 9.3125 32.6875 C9.30246143 34.49088051 9.29333712 36.29426636 9.28515625 38.09765625 C9.2631859 42.50273633 9.22870321 46.90755953 9.1875 51.3125 C6.5475 51.3125 3.9075 51.3125 1.1875 51.3125 C0.8575 49.6625 0.5275 48.0125 0.1875 46.3125 C-0.864375 47.240625 -0.864375 47.240625 -1.9375 48.1875 C-8.09333214 52.73746289 -14.385225 52.98770682 -21.8125 52.3125 C-27.44809468 51.09399304 -31.09419911 48.81953139 -34.8125 44.3125 C-36.68914991 38.68255027 -36.74999151 33.22220492 -34.125 27.875 C-30.80172295 24.19244976 -27.65058936 22.26387618 -22.8125 21.3125 C-20.93372376 21.23223255 -19.0523385 21.20484128 -17.171875 21.21484375 C-15.56699219 21.21967773 -15.56699219 21.21967773 -13.9296875 21.22460938 C-12.81851563 21.23298828 -11.70734375 21.24136719 -10.5625 21.25 C-8.87253906 21.25676758 -8.87253906 21.25676758 -7.1484375 21.26367188 C-4.36973783 21.27544603 -1.59114591 21.2918916 1.1875 21.3125 C0.9022176 19.87345487 0.60739326 18.43629934 0.30859375 17 C0.06387329 15.79923828 0.06387329 15.79923828 -0.18579102 14.57421875 C-1.0505069 11.45356118 -2.50541145 9.54967678 -4.8125 7.3125 C-11.3597948 5.1300684 -18.59064305 5.40191705 -24.875 8.25 C-26.18979293 8.93310471 -27.50262229 9.62001688 -28.8125 10.3125 C-29.8025 10.6425 -30.7925 10.9725 -31.8125 11.3125 C-34.8125 6.5625 -34.8125 6.5625 -34.8125 4.3125 C-33.2095947 3.49751438 -31.60512722 2.68560073 -30 1.875 C-29.10667969 1.42253906 -28.21335937 0.97007813 -27.29296875 0.50390625 C-19.89551098 -3.04920339 -7.61304827 -3.589422 0 0 Z M-25.8125 30.3125 C-28.15418764 33.82503146 -28.30873677 35.17719356 -27.8125 39.3125 C-25.66159549 42.65011045 -24.60837201 44.04720933 -20.8125 45.3125 C-14.58347262 45.82099203 -9.09222848 46.04694209 -3.8125 42.3125 C-0.43897994 38.57427507 1.33098194 36.20838018 1.25 31.1875 C1.229375 29.90875 1.20875 28.63 1.1875 27.3125 C-2.18733413 27.22482445 -5.56187215 27.17188372 -8.9375 27.125 C-9.88882813 27.09986328 -10.84015625 27.07472656 -11.8203125 27.04882812 C-17.2310834 26.99246593 -21.19190796 27.14599204 -25.8125 30.3125 Z " fill="#090102" transform="translate(716.8125,32.6875)"/>
<path d="M0 0 C2.64 0 5.28 0 8 0 C8.33 1.98 8.66 3.96 9 6 C9.54269531 5.65066406 10.08539062 5.30132812 10.64453125 4.94140625 C11.71767578 4.25884766 11.71767578 4.25884766 12.8125 3.5625 C13.52019531 3.11003906 14.22789062 2.65757813 14.95703125 2.19140625 C20.95476939 -1.30631867 28.29237166 -0.50307213 35 0 C40.4291033 1.48654019 43.96732091 4.21769836 47 9 C50.09020915 15.1804183 50.12492271 21.89424576 50.09765625 28.68359375 C50.0962413 29.38396255 50.09482635 30.08433136 50.09336853 30.80592346 C50.08782477 33.01649466 50.07528326 35.22696004 50.0625 37.4375 C50.05747771 38.94726415 50.05291609 40.45702991 50.04882812 41.96679688 C50.03787387 45.64456493 50.0206489 49.32227212 50 53 C47.03 53 44.06 53 41 53 C40.98541748 51.94087402 40.97083496 50.88174805 40.95581055 49.79052734 C40.89762673 45.84292658 40.82039593 41.89588429 40.73754883 37.94873047 C40.70439364 36.24374488 40.67633263 34.53865202 40.65356445 32.83349609 C40.61984432 30.37551366 40.56752206 27.91850594 40.51171875 25.4609375 C40.50532883 24.70444916 40.4989389 23.94796082 40.49235535 23.16854858 C40.36197516 18.42411592 39.59077256 15.11866407 37 11 C32.06125635 7.38628514 26.89340114 7.29931876 21 8 C16.2663255 9.66555214 13.73093326 11.80606677 11 16 C9.18224775 20.54233269 8.70683292 24.49107238 8.5859375 29.3671875 C8.56657135 30.04677521 8.5472052 30.72636292 8.5272522 31.42654419 C8.46794901 33.57590579 8.42127109 35.72532241 8.375 37.875 C8.33677468 39.3411679 8.29772036 40.80731443 8.2578125 42.2734375 C8.16228956 45.84876164 8.07807874 49.42424748 8 53 C5.36 53 2.72 53 0 53 C0 35.51 0 18.02 0 0 Z " fill="#090102" transform="translate(762,31)"/>
<path d="M0 0 C1.1753833 0.01160156 1.1753833 0.01160156 2.37451172 0.0234375 C8.5338346 0.2069555 13.70964111 1.45215982 19.125 4.5 C18.3125 7.4375 18.3125 7.4375 17.125 10.5 C16.135 10.83 15.145 11.16 14.125 11.5 C13.196875 11.025625 12.26875 10.55125 11.3125 10.0625 C5.72626865 7.47871847 -0.88745269 7.60116016 -6.875 8.5 C-9.8246529 10.15629064 -9.8246529 10.15629064 -11.875 12.5 C-12.37108434 16.11124962 -12.37108434 16.11124962 -10.875 19.5 C-5.21211249 22.46592825 0.66809272 23.64499087 6.89648438 24.87304688 C11.71945185 25.91057093 15.1719659 27.38585405 19.125 30.5 C21.45164593 34.41299544 21.51835225 38.01578435 21.125 42.5 C19.44368146 47.75412045 16.71384946 49.80837286 12.16015625 52.51953125 C3.78391713 56.55491708 -7.27348249 55.32002665 -15.80859375 52.3671875 C-18.33388241 51.30742553 -20.63088611 50.07087972 -22.875 48.5 C-22.26222388 45.53824877 -21.62127478 44.11941217 -19.875 41.5 C-19.25625 41.768125 -18.6375 42.03625 -18 42.3125 C-8.24408491 46.01974774 -0.07632095 48.37650196 10.125 44.5 C12.38989372 41.68467943 12.38989372 41.68467943 12.1875 38.5 C11.40638267 35.20746206 11.40638267 35.20746206 8.09375 33.93359375 C3.32288891 32.0608282 -1.63298701 31.11546764 -6.64648438 30.12695312 C-12.0908166 28.95576014 -16.89551827 27.34908064 -20.2265625 22.5546875 C-21.8883057 17.28916386 -21.59970317 12.13058213 -19.375 7.125 C-13.88620112 1.36176118 -7.76956321 -0.18661614 0 0 Z " fill="#090102" transform="translate(840.875,30.5)"/>
<path d="M0 0 C5.28 0 10.56 0 16 0 C16 17.82 16 35.64 16 54 C10.72 54 5.44 54 0 54 C0 36.18 0 18.36 0 0 Z " fill="#090102" transform="translate(417,30)"/>
<path d="M0 0 C5.28 0 10.56 0 16 0 C16 17.82 16 35.64 16 54 C10.72 54 5.44 54 0 54 C0 36.18 0 18.36 0 0 Z " fill="#090801" transform="translate(271,30)"/>
<path d="M0 0 C12.21 0 24.42 0 37 0 C37 5.94 37 11.88 37 18 C31.89130189 18.02290896 26.78278074 18.04283601 21.67407227 18.05493164 C19.93480832 18.05997204 18.19554864 18.0668043 16.45629883 18.07543945 C13.96174063 18.08751792 11.46723827 18.09323108 8.97265625 18.09765625 C8.19036148 18.10281754 7.40806671 18.10797882 6.60206604 18.11329651 C4.73432886 18.11349226 2.86670796 18.06199694 1 18 C0.67 17.67 0.34 17.34 0 17 C0 11.39 0 5.78 0 0 Z " fill="#E5AD05" transform="translate(46,59)"/>
<path d="M0 0 C2.31 0 4.62 0 7 0 C7.33 2.31 7.66 4.62 8 7 C8.9075 6.21625 9.815 5.4325 10.75 4.625 C14.6103697 1.29104435 17.57593482 -0.27717839 22.75 -0.125 C23.54921875 -0.10695313 24.3484375 -0.08890625 25.171875 -0.0703125 C25.77515625 -0.04710938 26.3784375 -0.02390625 27 0 C27 2.31 27 4.62 27 7 C26.26394531 7.15855469 25.52789063 7.31710938 24.76953125 7.48046875 C18.88107514 8.88840872 14.74763636 9.92255719 11 15 C8.90119408 19.18217257 8.66222693 23.1101439 8.5859375 27.70703125 C8.56657135 28.43242599 8.5472052 29.15782074 8.5272522 29.90519714 C8.46777892 32.20751422 8.42120155 34.50988219 8.375 36.8125 C8.33679042 38.37957832 8.29773697 39.94663631 8.2578125 41.51367188 C8.16210437 45.34228152 8.07795552 49.17098942 8 53 C5.36 53 2.72 53 0 53 C0 35.51 0 18.02 0 0 Z " fill="#090102" transform="translate(650,31)"/>
<path d="M0 0 C2.64 0 5.28 0 8 0 C8 17.49 8 34.98 8 53 C5.36 53 2.72 53 0 53 C0 35.51 0 18.02 0 0 Z " fill="#090102" transform="translate(740,31)"/>
<path d="M0 0 C4.56944444 2.13888889 4.56944444 2.13888889 6 5 C6.58394161 12.24087591 6.58394161 12.24087591 4.125 15.4375 C0.18819189 18.33221184 -3.22750777 18.37876922 -8 18 C-11.4203866 16.82986774 -11.91540482 16.12689277 -14 13 C-14.6779661 5.88135593 -14.6779661 5.88135593 -12.125 2.5625 C-8.2176902 -0.31052191 -4.75119364 -0.5279104 0 0 Z " fill="#090102" transform="translate(429,5)"/>
<path d="M0 0 C4.56944444 2.13888889 4.56944444 2.13888889 6 5 C6.58394161 12.24087591 6.58394161 12.24087591 4.125 15.4375 C0.18819189 18.33221184 -3.22750777 18.37876922 -8 18 C-11.4203866 16.82986774 -11.91540482 16.12689277 -14 13 C-14.6779661 5.88135593 -14.6779661 5.88135593 -12.125 2.5625 C-8.2176902 -0.31052191 -4.75119364 -0.5279104 0 0 Z " fill="#090801" transform="translate(283,5)"/>
<path d="M0 0 C1 1 1 1 1.1875 4.4375 C1 8 1 8 -1 10 C-4.5 10.3125 -4.5 10.3125 -8 10 C-10.14762184 6.77856724 -10.561068 5.7404533 -10 2 C-6.88154874 -1.59821299 -4.38661903 -1.16976507 0 0 Z " fill="#080102" transform="translate(748,10)"/>
</svg>
