<?xml version="1.0" encoding="UTF-8"?>
<svg version="1.1" xmlns="http://www.w3.org/2000/svg" width="950" height="90">
<path d="M0 0 C0.67155349 2.26949102 1.3373963 4.5403961 2 6.8125 C2.37125 8.07707031 2.7425 9.34164062 3.125 10.64453125 C4 14 4 14 4 17 C9.94 17 15.88 17 22 17 C23.32 11.39 24.64 5.78 26 0 C33.69663471 1.53932694 38.86944812 5.9472346 43.3125 12.375 C45.64694678 16.14503456 47.48756445 20.04144316 49.140625 24.15234375 C49.95865655 26.1872832 49.95865655 26.1872832 52 28 C52.56019076 31.71494924 52.50921684 35.28050309 52 39 C50.1875 41.375 50.1875 41.375 47 43 C46.175 43.42925781 45.35 43.85851562 44.5 44.30078125 C34.14538751 49.40618046 24.49909465 49.18194081 13.125 49.1875 C11.81402344 49.19974609 10.50304688 49.21199219 9.15234375 49.22460938 C-0.884303 49.23970965 -9.5755588 48.70632017 -18.5625 43.9375 C-19.57441406 43.41027344 -20.58632813 42.88304687 -21.62890625 42.33984375 C-24 41 -24 41 -25 40 C-25.15272417 37.92060164 -25.22195322 35.83481069 -25.25 33.75 C-25.27578125 32.61046875 -25.3015625 31.4709375 -25.328125 30.296875 C-24.96557957 26.65415663 -24.04136503 24.98616947 -22 22 C-21.2165506 20.38104476 -20.44565829 18.75595219 -19.6875 17.125 C-15.93489847 9.60862849 -9.33776337 0 0 0 Z M-11 33 C-0.42288814 40.0514079 14.76591986 39.29097136 26.88671875 37.390625 C32.47482331 36.20084778 32.47482331 36.20084778 37 33 C35.25976562 33.2165625 35.25976562 33.2165625 33.484375 33.4375 C18.24139977 35.27739521 4.21311501 34.89318765 -11 33 Z " fill="#F2822F" transform="translate(50,24)"/>
<path d="M0 0 C11 0 11 0 13.76171875 2.52270508 C14.39722656 3.67665771 15.03273438 4.83061035 15.6875 6.01953125 C16.04215332 6.63390549 16.39680664 7.24827972 16.76220703 7.88127136 C17.88163784 9.83873948 18.94087291 11.82187184 20 13.8125 C21.09959201 15.78362585 22.21051454 17.74799829 23.32348633 19.71159363 C24.32538685 21.49377914 25.30016341 23.29113264 26.2734375 25.08911133 C27.70167187 27.49703531 28.90277027 29.19025479 31 31 C33.25052225 27.14613806 35.50032384 23.29185589 37.75 19.4375 C38.38421875 18.35146484 39.0184375 17.26542969 39.671875 16.14648438 C42.80507599 10.77761392 45.92923861 5.40485022 49 0 C52.96 0 56.92 0 61 0 C61 17.82 61 35.64 61 54 C56.71 54 52.42 54 48 54 C47.67 45.09 47.34 36.18 47 27 C43.00765766 34.22430093 43.00765766 34.22430093 39.07397461 41.48046875 C34.97827567 48.6490733 34.97827567 48.6490733 30.4609375 50.26953125 C25.12418528 48.31191898 23.40429893 44.49307665 20.6875 39.6875 C20.16349609 38.80642578 19.63949219 37.92535156 19.09960938 37.01757812 C18.12715509 35.38021912 17.16527855 33.73649861 16.2175293 32.0847168 C15.2060011 30.35272577 14.11258288 28.66887433 13 27 C12.67 35.91 12.34 44.82 12 54 C8.04 54 4.08 54 0 54 C0 36.18 0 18.36 0 0 Z " fill="#090801" transform="translate(111,15)"/>
<path d="M0 0 C4.8803702 4.27393366 7.93438092 8.48788343 9 15 C9 17.31 9 19.62 9 22 C-1.23 22 -11.46 22 -22 22 C-19.99933462 26.00133075 -19.13104327 27.02144551 -15.0703125 28.6015625 C-10.58769828 29.46425429 -6.1254061 27.78346728 -1.93359375 26.23828125 C0 26 0 26 1.703125 27.21484375 C2.21359375 27.78332031 2.7240625 28.35179688 3.25 28.9375 C3.77078125 29.50339844 4.2915625 30.06929687 4.828125 30.65234375 C5.40820312 31.31943359 5.40820312 31.31943359 6 32 C4.63385634 35.3347917 3.45324439 36.72315847 0.1875 38.25 C-6.94211451 41.1593427 -15.18782973 41.21763729 -22.5 38.8125 C-28.28388157 35.81727561 -32.91955228 31.24134315 -35 25 C-35.94164111 11.43674636 -35.94164111 11.43674636 -32 6 C-23.91601868 -3.14766308 -10.98783863 -6.82474449 0 0 Z M-21 10 C-21.33 11.32 -21.66 12.64 -22 14 C-16.06 14 -10.12 14 -4 14 C-5.41738088 9.20000935 -5.41738088 9.20000935 -7.75 7.6875 C-12.92472961 6.10633262 -16.7493229 6.59945832 -21 10 Z " fill="#090102" transform="translate(434,30)"/>
<path d="M0 0 C3.87248316 3.87248316 5.84208256 7.75366688 6.22705078 13.22973633 C6.21657715 14.41849365 6.20610352 15.60725098 6.1953125 16.83203125 C6.18886719 18.12431641 6.18242187 19.41660156 6.17578125 20.74804688 C6.15907327 22.1028673 6.14214342 23.45768501 6.125 24.8125 C6.11496003 26.18684251 6.10583596 27.56119203 6.09765625 28.93554688 C6.07411242 32.29054317 6.04122567 35.64518199 6 39 C2.04 39 -1.92 39 -6 39 C-6.33 38.34 -6.66 37.68 -7 37 C-7.598125 37.495 -8.19625 37.99 -8.8125 38.5 C-14.12780032 41.0013178 -19.75674731 40.93953474 -25.38671875 39.30859375 C-28.89580817 37.75836756 -30.73851656 36.34864459 -33.0625 33.25 C-34.24366867 29.15528196 -34.23482923 26.07409645 -33 22 C-30.58007301 18.02440566 -28.47781092 16.22122116 -24 15 C-18.29579412 14.04929902 -12.77429785 13.87970213 -7 14 C-8.42134069 10.856783 -8.42134069 10.856783 -11 8.625 C-15.56042721 7.674911 -19.54200987 8.87644151 -24 10 C-24.76183594 10.18949219 -25.52367187 10.37898438 -26.30859375 10.57421875 C-26.86675781 10.71472656 -27.42492187 10.85523438 -28 11 C-31.3203125 5.921875 -31.3203125 5.921875 -32 4 C-31.390625 1.875 -31.390625 1.875 -30 0 C-21.00120997 -4.80413491 -8.92165356 -4.62014202 0 0 Z M-21 25 C-20.65555119 27.47266765 -20.65555119 27.47266765 -20 30 C-16.6285809 31.68570955 -13.28616721 31.31285148 -9.6875 30.4375 C-7.60519665 28.96171965 -7.60519665 28.96171965 -7.25 25.375 C-7.1675 24.26125 -7.085 23.1475 -7 22 C-12.50366792 21.67625483 -16.43672206 21.46713966 -21 25 Z " fill="#090801" transform="translate(210,30)"/>
<path d="M0 0 C4.12593192 2.87855716 7.06537651 6.00862953 8.6875 10.875 C8.77128628 13.1588517 8.79479915 15.445101 8.78515625 17.73046875 C8.7837413 18.39210526 8.78232635 19.05374176 8.78086853 19.73542786 C8.77527996 21.84449828 8.76272965 23.95346177 8.75 26.0625 C8.74498352 27.49413909 8.74042087 28.92577985 8.73632812 30.35742188 C8.726166 33.86335539 8.70658861 37.36905827 8.6875 40.875 C4.3975 40.875 0.1075 40.875 -4.3125 40.875 C-4.36148437 39.03292969 -4.41046875 37.19085938 -4.4609375 35.29296875 C-4.5359623 32.88279701 -4.61151025 30.47264151 -4.6875 28.0625 C-4.7184375 26.84755859 -4.749375 25.63261719 -4.78125 24.38085938 C-4.81992187 23.21748047 -4.85859375 22.05410156 -4.8984375 20.85546875 C-4.9298584 19.78192139 -4.9612793 18.70837402 -4.99365234 17.60229492 C-5.12842307 14.6589235 -5.12842307 14.6589235 -7.3125 11.875 C-10.85306848 10.77348981 -12.63081902 10.58063776 -16.0625 12.0625 C-19.12257343 14.52755915 -20.14612818 16.53638205 -20.63134766 20.44042969 C-20.66276855 21.38305664 -20.69418945 22.32568359 -20.7265625 23.296875 C-20.78457031 24.83408203 -20.78457031 24.83408203 -20.84375 26.40234375 C-20.89015625 27.99755859 -20.89015625 27.99755859 -20.9375 29.625 C-20.99550781 31.24341797 -20.99550781 31.24341797 -21.0546875 32.89453125 C-21.14884248 35.55440932 -21.2317555 38.21468106 -21.3125 40.875 C-25.6025 40.875 -29.8925 40.875 -34.3125 40.875 C-34.3125 27.345 -34.3125 13.815 -34.3125 -0.125 C-30.0225 -0.125 -25.7325 -0.125 -21.3125 -0.125 C-20.9825 0.535 -20.6525 1.195 -20.3125 1.875 C-19.36375 1.38 -18.415 0.885 -17.4375 0.375 C-11.68624968 -2.07482265 -5.87149963 -1.99409421 0 0 Z " fill="#090102" transform="translate(386.3125,28.125)"/>
<path d="M0 0 C3.95458118 2.26889102 6.18662404 5.12237213 7.625 9.4375 C8.92115141 15.88414778 8.73806101 22.32151515 8.6875 28.875 C8.68298828 29.98810547 8.67847656 31.10121094 8.67382812 32.24804688 C8.66211207 34.97788796 8.64417891 37.70770114 8.625 40.4375 C4.335 40.4375 0.045 40.4375 -4.375 40.4375 C-4.41238281 38.76300781 -4.44976562 37.08851562 -4.48828125 35.36328125 C-4.5539457 33.15883195 -4.62039287 30.95440586 -4.6875 28.75 C-4.71005859 27.64720703 -4.73261719 26.54441406 -4.75585938 25.40820312 C-4.79130859 24.34150391 -4.82675781 23.27480469 -4.86328125 22.17578125 C-4.88946533 21.19649658 -4.91564941 20.21721191 -4.94262695 19.20825195 C-5.44741721 15.97343284 -6.42120139 14.05076716 -8.375 11.4375 C-12.03749207 10.16358971 -13.65735132 10.10259728 -17.1875 11.75 C-19.46415626 13.25328588 -19.46415626 13.25328588 -20.375 15.4375 C-20.52844209 17.32222859 -20.62459571 19.21177874 -20.69140625 21.1015625 C-20.73330078 22.22304688 -20.77519531 23.34453125 -20.81835938 24.5 C-20.87733398 26.2634375 -20.87733398 26.2634375 -20.9375 28.0625 C-20.98068359 29.24585937 -21.02386719 30.42921875 -21.06835938 31.6484375 C-21.17467338 34.57797907 -21.27536217 37.50772377 -21.375 40.4375 C-25.665 40.4375 -29.955 40.4375 -34.375 40.4375 C-34.375 26.9075 -34.375 13.3775 -34.375 -0.5625 C-30.415 -0.5625 -26.455 -0.5625 -22.375 -0.5625 C-22.045 0.0975 -21.715 0.7575 -21.375 1.4375 C-20.42625 0.9425 -19.4775 0.4475 -18.5 -0.0625 C-12.42088332 -2.62923815 -6.06602819 -2.62070492 0 0 Z " fill="#090801" transform="translate(276.375,28.5625)"/>
<path d="M0 0 C4.29 0 8.58 0 13 0 C13 14.19 13 28.38 13 43 C21.51162825 42.96040724 21.51162825 42.96040724 30.02319336 42.90991211 C31.6030603 42.90616577 31.6030603 42.90616577 33.21484375 42.90234375 C34.84087524 42.89448853 34.84087524 42.89448853 36.49975586 42.88647461 C39 43 39 43 40 44 C40 47.3 40 50.6 40 54 C26.8 54 13.6 54 0 54 C0 36.18 0 18.36 0 0 Z " fill="#090102" transform="translate(292,15)"/>
<path d="M0 0 C2.31 0 4.62 0 7 0 C7 18.81 7 37.62 7 57 C5.02 57 3.04 57 1 57 C0.67 55.35 0.34 53.7 0 52 C-0.721875 52.61875 -1.44375 53.2375 -2.1875 53.875 C-6.83718408 57.38809464 -10.74508681 58.53519787 -16.52734375 58.37109375 C-22.02553706 57.54593046 -27.03971101 55.26532251 -30.70703125 51.02734375 C-34.44255782 45.2679584 -35.68774378 39.88994222 -35 33 C-33.41470558 26.22193015 -30.21553292 22.1959737 -24.4375 18.25 C-19.44669422 15.69061242 -14.33983203 15.06992019 -8.83984375 16.6015625 C-5.63292205 17.75395905 -3.43861406 18.56138594 -1 21 C-0.67 14.07 -0.34 7.14 0 0 Z M-26.375 28.625 C-28.57907893 33.20270239 -28.7971639 37.00552411 -28 42 C-25.6704397 46.83831756 -22.79876079 49.6006196 -18 52 C-11.63293378 52.80851635 -8.14281187 51.83189904 -3 48 C0.63823254 43.07078172 0.6821836 37.89944687 0 32 C-1.34961685 27.71298178 -2.57051007 26.3200121 -6.1875 23.625 C-14.21157001 19.59603658 -20.5480765 22.18471613 -26.375 28.625 Z " fill="#090102" transform="translate(711,12)"/>
<path d="M0 0 C2.31 0 4.62 0 7 0 C7.32798584 0.87325928 7.65597168 1.74651855 7.99389648 2.64624023 C9.20869079 5.87671876 10.42589917 9.10626562 11.64477539 12.33520508 C12.17244465 13.73457682 12.69914064 15.13431595 13.22485352 16.53442383 C13.97939339 18.54344846 14.73739019 20.55113845 15.49609375 22.55859375 C15.95169678 23.76829834 16.4072998 24.97800293 16.87670898 26.22436523 C17.73553801 28.86560481 17.73553801 28.86560481 19 30 C19.32798584 29.12674072 19.65597168 28.25348145 19.99389648 27.35375977 C21.20869079 24.12328124 22.42589917 20.89373438 23.64477539 17.66479492 C24.17244465 16.26542318 24.69914064 14.86568405 25.22485352 13.46557617 C25.97939339 11.45655154 26.73739019 9.44886155 27.49609375 7.44140625 C27.95169678 6.23170166 28.4072998 5.02199707 28.87670898 3.77563477 C30 1 30 1 31 0 C32.99958364 -0.04080783 35.00045254 -0.04254356 37 0 C37.49197876 1.30988892 37.49197876 1.30988892 37.99389648 2.64624023 C39.20869079 5.87671876 40.42589917 9.10626562 41.64477539 12.33520508 C42.17244465 13.73457682 42.69914064 15.13431595 43.22485352 16.53442383 C43.97939339 18.54344846 44.73739019 20.55113845 45.49609375 22.55859375 C46.17949829 24.37315063 46.17949829 24.37315063 46.87670898 26.22436523 C47.73553801 28.86560481 47.73553801 28.86560481 49 30 C49.49197876 28.69011108 49.49197876 28.69011108 49.99389648 27.35375977 C51.20869079 24.12328124 52.42589917 20.89373438 53.64477539 17.66479492 C54.17244465 16.26542318 54.69914064 14.86568405 55.22485352 13.46557617 C55.97939339 11.45655154 56.73739019 9.44886155 57.49609375 7.44140625 C57.95169678 6.23170166 58.4072998 5.02199707 58.87670898 3.77563477 C60 1 60 1 61 0 C62.99958364 -0.04080783 65.00045254 -0.04254356 67 0 C64.82455392 7.8665891 62.04139544 15.4738597 59.12890625 23.08959961 C58.3650417 25.08855993 57.60798269 27.09000922 56.8515625 29.09179688 C56.36758291 30.36473374 55.88322243 31.63752587 55.3984375 32.91015625 C54.74367432 34.62924194 54.74367432 34.62924194 54.07568359 36.38305664 C53 39 53 39 52 40 C49.69 40 47.38 40 45 40 C41.37 30.43 37.74 20.86 34 11 C30.83070891 18.09413567 30.83070891 18.09413567 27.859375 25.25390625 C27.51132812 26.12724609 27.16328125 27.00058594 26.8046875 27.90039062 C26.45664062 28.77888672 26.10859375 29.65738281 25.75 30.5625 C25.38648438 31.47580078 25.02296875 32.38910156 24.6484375 33.33007812 C23.76402191 35.55275414 22.88123728 37.77606241 22 40 C19.69 40 17.38 40 15 40 C13.18355242 35.2683793 11.36882899 30.53610225 9.55566406 25.80322266 C8.93926978 24.19497041 8.32241393 22.58689498 7.70507812 20.97900391 C6.81517563 18.66095144 5.92696333 16.34225729 5.0390625 14.0234375 C4.62800766 12.95432632 4.62800766 12.95432632 4.20864868 11.86361694 C2.70744073 7.93771608 1.29674178 3.99965503 0 0 Z " fill="#090102" transform="translate(721,29)"/>
<path d="M0 0 C2.625 2.75 2.625 2.75 4 5 C3.01 5.99 2.02 6.98 1 8 C-1.7970612 6.8981274 -4.4528893 5.76449756 -7.125 4.375 C-12.85167466 1.96507617 -18.85928493 2.03773836 -24.75390625 3.84375 C-29.92972806 6.12697393 -33.4935491 8.71710186 -36.16015625 13.765625 C-38.57277891 20.18432344 -38.6891048 26.47921968 -36.2109375 32.890625 C-33.39248075 37.80019482 -29.07730994 40.98344407 -24.0625 43.4375 C-16.08492652 44.9027686 -11.90535999 43.96451 -4 41 C-3.67 35.06 -3.34 29.12 -3 23 C-1.02 23 0.96 23 3 23 C3 30.26 3 37.52 3 45 C-7.03874629 50.15146191 -15.49898368 53.27828306 -26.8125 49.75 C-34.13063457 46.92431459 -39.01928293 42.73844276 -43 36 C-45.92603135 28.74983358 -46.35177085 20.64631932 -44.16015625 13.11328125 C-40.79020419 5.70392537 -35.4391517 0.08517297 -27.8125 -2.9375 C-18.43786264 -5.52360686 -8.43030849 -5.0646575 0 0 Z " fill="#090102" transform="translate(500,19)"/>
<path d="M0 0 C1.98 0 3.96 0 6 0 C6.33 11.88 6.66 23.76 7 36 C15.45844828 28.27604352 15.45844828 28.27604352 23.6875 20.3125 C26.8426002 17.47522125 28.79930658 16.51992146 33.0625 16.5 C34.361875 16.665 35.66125 16.83 37 17 C31.66666667 22.33333333 26.33333333 27.66666667 21 33 C24.39313806 38.25855994 28.18253829 43.09763298 32.109375 47.96484375 C34.41969332 50.86221016 36.54377858 53.55646465 38 57 C34.89892184 57.45967309 32.99764044 57.69486033 30 57 C26.98070364 54.60997283 24.7996368 51.69447229 22.5 48.625 C21.86835937 47.8309375 21.23671875 47.036875 20.5859375 46.21875 C16 40.36224973 16 40.36224973 16 38 C14.68712379 39.14540225 13.37470979 40.29133433 12.0625 41.4375 C11.33160156 42.07558594 10.60070312 42.71367188 9.84765625 43.37109375 C6.71593209 46.13204295 6.77932765 47.31407059 6.4375 51.5625 C6.35371094 52.57441406 6.26992188 53.58632812 6.18359375 54.62890625 C6.09271484 55.80259766 6.09271484 55.80259766 6 57 C4.02 57 2.04 57 0 57 C0 38.19 0 19.38 0 0 Z " fill="#090102" transform="translate(863,12)"/>
<path d="M0 0 C4.98716126 4.99721602 7.14064155 9.62321324 7.3125 16.6875 C7.24204771 23.16911034 6.00301253 27.70174747 1.609375 32.52734375 C-3.55106404 37.21247919 -8.93522091 38.45403658 -15.703125 38.23828125 C-23.05815524 37.47525941 -26.97362546 34.56475115 -31.65234375 28.9375 C-35.41447635 23.52875284 -34.61839151 16.274242 -34 10 C-32.09616521 4.82567723 -28.68479588 0.90011174 -24 -2 C-15.40287462 -5.18412051 -7.88322829 -4.6806668 0 0 Z M-25.8125 8.0625 C-28.32761366 12.1661065 -28.48853585 16.31893831 -28 21 C-26.04614079 26.34740414 -23.08763713 29.45618143 -18 32 C-12.42664432 32.37155705 -8.76348149 32.24782829 -4 29 C-0.36099636 24.77088767 1.26137131 20.5828911 1 15 C0.09374345 10.58901677 -1.26090135 7.72062118 -4.5 4.5625 C-12.40839998 -0.38024999 -19.82502834 1.24917018 -25.8125 8.0625 Z " fill="#090102" transform="translate(822,32)"/>
<path d="M0 0 C4.98716126 4.99721602 7.14064155 9.62321324 7.3125 16.6875 C7.24204771 23.16911034 6.00301253 27.70174747 1.609375 32.52734375 C-3.55106404 37.21247919 -8.93522091 38.45403658 -15.703125 38.23828125 C-23.05815524 37.47525941 -26.97362546 34.56475115 -31.65234375 28.9375 C-35.41447635 23.52875284 -34.61839151 16.274242 -34 10 C-32.09616521 4.82567723 -28.68479588 0.90011174 -24 -2 C-15.40287462 -5.18412051 -7.88322829 -4.6806668 0 0 Z M-25.8125 8.0625 C-28.32761366 12.1661065 -28.48853585 16.31893831 -28 21 C-26.04614079 26.34740414 -23.08763713 29.45618143 -18 32 C-12.42664432 32.37155705 -8.76348149 32.24782829 -4 29 C-0.36099636 24.77088767 1.26137131 20.5828911 1 15 C0.09374345 10.58901677 -1.26090135 7.72062118 -4.5 4.5625 C-12.40839998 -0.38024999 -19.82502834 1.24917018 -25.8125 8.0625 Z " fill="#090102" transform="translate(571,32)"/>
<path d="M0 0 C2.31 0 4.62 0 7 0 C7.0093457 0.82201904 7.01869141 1.64403809 7.02832031 2.4909668 C7.08207871 6.22374962 7.16571831 9.95528681 7.25 13.6875 C7.26417969 14.98107422 7.27835938 16.27464844 7.29296875 17.60742188 C7.32519531 18.85458984 7.35742188 20.10175781 7.390625 21.38671875 C7.4220459 23.10701294 7.4220459 23.10701294 7.45410156 24.86206055 C8.11007813 28.63275233 9.31414829 30.31445336 12 33 C16.51952327 34.50650776 20.35959378 34.74563919 24.75 32.75 C28.07155309 30.16656982 29.8051796 28.32139054 30.43237305 24.06738281 C30.45855713 22.95717773 30.48474121 21.84697266 30.51171875 20.703125 C30.54716797 19.49785156 30.58261719 18.29257812 30.61914062 17.05078125 C30.64169922 15.79652344 30.66425781 14.54226562 30.6875 13.25 C30.72166016 11.98027344 30.75582031 10.71054687 30.79101562 9.40234375 C30.87349001 6.26831726 30.94264484 3.13457045 31 0 C33.31 0 35.62 0 38 0 C38 13.2 38 26.4 38 40 C36.02 40 34.04 40 32 40 C31.67 38.68 31.34 37.36 31 36 C29.6078125 36.9590625 29.6078125 36.9590625 28.1875 37.9375 C23.13102218 41.20933859 18.87947262 41.67547339 13 41 C8.43531925 39.59856293 5.61754671 37.74422296 2.5625 34.0625 C0.13582842 29.3062237 -0.12372527 25.1162296 -0.09765625 19.82421875 C-0.09443359 18.66728516 -0.09121094 17.51035156 -0.08789062 16.31835938 C-0.07951172 15.12017578 -0.07113281 13.92199219 -0.0625 12.6875 C-0.05798828 11.46998047 -0.05347656 10.25246094 -0.04882812 8.99804688 C-0.03706578 5.99864774 -0.02062826 2.99934911 0 0 Z " fill="#090102" transform="translate(584,29)"/>
<path d="M0 0 C3.71554756 3.5139287 5.91608712 6.78054938 6.11352539 12.00268555 C6.10828857 13.2019165 6.10305176 14.40114746 6.09765625 15.63671875 C6.09443359 16.93544922 6.09121094 18.23417969 6.08789062 19.57226562 C6.07953531 20.94401108 6.07107037 22.31575587 6.0625 23.6875 C6.05748335 25.07096195 6.05292073 26.45442563 6.04882812 27.83789062 C6.03702529 31.22530395 6.02056019 34.61263033 6 38 C4.02 38 2.04 38 0 38 C-0.01458252 37.2793335 -0.02916504 36.55866699 -0.04418945 35.81616211 C-0.11906959 32.52275913 -0.21559841 29.23032564 -0.3125 25.9375 C-0.33505859 24.80376953 -0.35761719 23.67003906 -0.38085938 22.50195312 C-0.579413 16.31068994 -0.9016002 11.42790923 -4 6 C-7.70124035 3.38735976 -11.52815865 3.84894221 -15.84375 4.453125 C-18.97171612 5.24644974 -20.80925189 6.67233014 -23 9 C-24.05836661 12.17509982 -24.20243789 14.64282383 -24.31640625 17.98046875 C-24.35830078 19.14384766 -24.40019531 20.30722656 -24.44335938 21.50585938 C-24.48267578 22.72080078 -24.52199219 23.93574219 -24.5625 25.1875 C-24.60568359 26.41404297 -24.64886719 27.64058594 -24.69335938 28.90429688 C-24.7995309 31.93608381 -24.90157952 34.96795315 -25 38 C-27.31 38 -29.62 38 -32 38 C-32 24.8 -32 11.6 -32 -2 C-30.02 -2 -28.04 -2 -26 -2 C-25.67 -0.68 -25.34 0.64 -25 2 C-24.0925 1.360625 -23.185 0.72125 -22.25 0.0625 C-15.05670954 -4.50247279 -7.3668286 -4.16990298 0 0 Z " fill="#090102" transform="translate(664,31)"/>
<path d="M0 0 C0.495 0.99 0.495 0.99 1 2 C0.0625 4.125 0.0625 4.125 -1 6 C-3.76276177 5.47731534 -6.3260876 4.89130413 -9 4 C-10.64176695 3.85747599 -12.28982655 3.77973245 -13.9375 3.75 C-14.79214844 3.72421875 -15.64679687 3.6984375 -16.52734375 3.671875 C-19.46144478 4.06123438 -20.80700201 5.06649829 -23 7 C-22.67 8.65 -22.34 10.3 -22 12 C-20.70906867 12.43966502 -19.41719164 12.87655299 -18.125 13.3125 C-16.89910156 13.72822266 -16.89910156 13.72822266 -15.6484375 14.15234375 C-13.89729589 14.71281238 -12.13058527 15.2269711 -10.3515625 15.69140625 C-5.04409254 17.08601172 -1.18780489 18.21829267 2 23 C2.93366608 27.14682323 2.49446503 30.07287807 0.5 33.8125 C-4.79916697 38.4492711 -10.53742939 39.51759488 -17.46875 39.29296875 C-23.12051112 38.63882973 -28.13624681 37.32401219 -32 33 C-31.34 31.68 -30.68 30.36 -30 29 C-27.69566485 29.53176965 -25.62996281 30.15343005 -23.4375 31.0625 C-18.59642914 32.38279205 -13.98251435 32.63738873 -9 32 C-6.21801554 30.47479878 -6.21801554 30.47479878 -5 28 C-5 26.68 -5 25.36 -5 24 C-6.73636719 23.61908203 -6.73636719 23.61908203 -8.5078125 23.23046875 C-10.0469671 22.88322046 -11.58602453 22.53554133 -13.125 22.1875 C-13.88554688 22.02185547 -14.64609375 21.85621094 -15.4296875 21.68554688 C-26.57349047 19.1397643 -26.57349047 19.1397643 -30 14 C-30.67383955 10.27614987 -30.76333676 6.61527512 -29.125 3.1484375 C-22.28007117 -5.99314508 -9.25013568 -3.93085688 0 0 Z " fill="#080102" transform="translate(931,31)"/>
<path d="M0 0 C4.29 0 8.58 0 13 0 C13 13.53 13 27.06 13 41 C8.71 41 4.42 41 0 41 C0 27.47 0 13.94 0 0 Z " fill="#090102" transform="translate(333,28)"/>
<path d="M0 0 C4.29 0 8.58 0 13 0 C13 13.53 13 27.06 13 41 C8.71 41 4.42 41 0 41 C0 27.47 0 13.94 0 0 Z " fill="#090801" transform="translate(222,28)"/>
<path d="M0 0 C0 1.98 0 3.96 0 6 C-6 8 -6 8 -12 10 C-14.57096199 16.23502007 -14.43520486 22.77489985 -14.625 29.4375 C-14.66367187 30.55060547 -14.70234375 31.66371094 -14.7421875 32.81054688 C-14.83590966 35.54020476 -14.92162294 38.26986563 -15 41 C-16.98 41 -18.96 41 -21 41 C-21 27.8 -21 14.6 -21 1 C-19.02 1 -17.04 1 -15 1 C-14.67 2.32 -14.34 3.64 -14 5 C-13.278125 4.360625 -12.55625 3.72125 -11.8125 3.0625 C-7.75258204 0.08522683 -4.96717964 0 0 0 Z " fill="#090102" transform="translate(857,28)"/>
<path d="M0 0 C0 1.98 0 3.96 0 6 C-0.67546875 6.13535156 -1.3509375 6.27070312 -2.046875 6.41015625 C-2.93890625 6.62542969 -3.8309375 6.84070312 -4.75 7.0625 C-5.63171875 7.25972656 -6.5134375 7.45695312 -7.421875 7.66015625 C-11.16776346 9.60688313 -12.72122047 12.09955701 -14 16 C-14.59695315 20.31273353 -14.69559901 24.5878939 -14.75 28.9375 C-14.77964844 30.09830078 -14.80929687 31.25910156 -14.83984375 32.45507812 C-14.91017401 35.3034538 -14.96305414 38.15102837 -15 41 C-16.98 41 -18.96 41 -21 41 C-21 27.8 -21 14.6 -21 1 C-19.02 1 -17.04 1 -15 1 C-14.67 2.32 -14.34 3.64 -14 5 C-13.2575 4.360625 -12.515 3.72125 -11.75 3.0625 C-7.73563098 0.05172324 -4.93526426 -0.13709067 0 0 Z " fill="#090102" transform="translate(535,28)"/>
<path d="M0 0 C2.625 1.4375 2.625 1.4375 4 4 C4.88376181 9.91887844 3.64917152 15.33097289 2 21 C-2.62 21 -7.24 21 -12 21 C-15.546875 6.8125 -15.546875 6.8125 -12.625 1.5 C-8.51921782 -0.84616124 -4.60833801 -0.72722942 0 0 Z " fill="#F2822F" transform="translate(68,17)"/>
<path d="M0 0 C2.5625 1.5625 2.5625 1.5625 4 4 C4 7.78814147 3.8367392 10.03929943 1.3125 12.9375 C-1.75283164 14.34589562 -3.65595685 14.47772045 -7 14 C-9.875 12.375 -9.875 12.375 -12 10 C-12.67927401 6.37720527 -12.46942769 4.74326051 -10.5 1.625 C-6.98827684 -0.65762005 -4.07600894 -0.80853347 0 0 Z " fill="#090801" transform="translate(233,9)"/>
<path d="M0 0 C2.23159222 1.43973692 2.77176398 2.4733015 3.8125 4.875 C4.06704199 7.75980919 3.33930733 9.45531608 2 12 C-1.48804095 14.32536063 -2.90140754 14.33457898 -7 14 C-10.7 12.6 -10.7 12.6 -12 10 C-12.56949153 3.73559322 -12.56949153 3.73559322 -10.5 1.0625 C-6.74515828 -0.53330773 -4.08109691 -0.3886759 0 0 Z " fill="#090102" transform="translate(344,9)"/>
</svg>
