<?xml version="1.0" encoding="UTF-8"?>
<svg version="1.1" xmlns="http://www.w3.org/2000/svg" width="878" height="100" viewBox="0 10 726 83" preserveAspectRatio="xMinYMid meet">
<path d="M0 0 C11 0 11 0 13.76171875 2.52270508 C14.39722656 3.67665771 15.03273438 4.83061035 15.6875 6.01953125 C16.04215332 6.63390549 16.39680664 7.24827972 16.76220703 7.88127136 C17.88163784 9.83873948 18.94087291 11.82187184 20 13.8125 C21.09959201 15.78362585 22.21051454 17.74799829 23.32348633 19.71159363 C24.32538685 21.49377914 25.30016341 23.29113264 26.2734375 25.08911133 C27.70167187 27.49703531 28.90277027 29.19025479 31 31 C33.25052225 27.14613806 35.50032384 23.29185589 37.75 19.4375 C38.38421875 18.35146484 39.0184375 17.26542969 39.671875 16.14648438 C42.80507599 10.77761392 45.92923861 5.40485022 49 0 C52.96 0 56.92 0 61 0 C61 17.82 61 35.64 61 54 C56.71 54 52.42 54 48 54 C47.67 45.09 47.34 36.18 47 27 C43.00765766 34.22430093 43.00765766 34.22430093 39.07397461 41.48046875 C34.97827567 48.6490733 34.97827567 48.6490733 30.4609375 50.26953125 C25.12418528 48.31191898 23.40429893 44.49307665 20.6875 39.6875 C20.16349609 38.80642578 19.63949219 37.92535156 19.09960938 37.01757812 C18.12715509 35.38021912 17.16527855 33.73649861 16.2175293 32.0847168 C15.2060011 30.35272577 14.11258288 28.66887433 13 27 C12.67 35.91 12.34 44.82 12 54 C8.04 54 4.08 54 0 54 C0 36.18 0 18.36 0 0 Z " fill="#090801" transform="translate(93,25)"/>
<path d="M0 0 C5.02902153 3.57834224 8.13504493 6.90120389 9.43359375 13.0546875 C9.93234338 16.41662942 10.08400153 18.7479954 9 22 C-0.9 22 -10.8 22 -21 22 C-18.67101937 26.88093431 -18.67101937 26.88093431 -15.984375 28.03125 C-10.11030621 29.26357212 -7.34435337 28.61978106 -2 26 C1.3958675 26 2.19701414 27.18358136 4.75 29.5625 C5.86375 30.7690625 5.86375 30.7690625 7 32 C5.79410532 35.61768405 5.0236788 35.92921767 1.75 37.6875 C-5.58619037 41.16640976 -13.724754 41.3637525 -21.4375 38.8125 C-27.457291 35.74979931 -31.60006378 32.56824649 -34 26 C-35.5449394 19.07352168 -35.19114729 13.17615877 -31.87890625 6.86328125 C-24.84360901 -3.91885984 -10.9570897 -6.11068464 0 0 Z M-20 10 C-20.33 11.32 -20.66 12.64 -21 14 C-15.06 14 -9.12 14 -3 14 C-5.50056593 9.02378257 -5.50056593 9.02378257 -9 7 C-13.59524725 6.5005166 -16.36810543 7.09448434 -20 10 Z " fill="#090102" transform="translate(415,40)"/>
<path d="M0 0 C3.87248316 3.87248316 5.84208256 7.75366688 6.22705078 13.22973633 C6.21657715 14.41849365 6.20610352 15.60725098 6.1953125 16.83203125 C6.18886719 18.12431641 6.18242187 19.41660156 6.17578125 20.74804688 C6.15907327 22.1028673 6.14214342 23.45768501 6.125 24.8125 C6.11496003 26.18684251 6.10583596 27.56119203 6.09765625 28.93554688 C6.07411242 32.29054317 6.04122567 35.64518199 6 39 C2.04 39 -1.92 39 -6 39 C-6.33 38.34 -6.66 37.68 -7 37 C-7.598125 37.495 -8.19625 37.99 -8.8125 38.5 C-14.12780032 41.0013178 -19.75674731 40.93953474 -25.38671875 39.30859375 C-28.89580817 37.75836756 -30.73851656 36.34864459 -33.0625 33.25 C-34.24366867 29.15528196 -34.23482923 26.07409645 -33 22 C-30.58007301 18.02440566 -28.47781092 16.22122116 -24 15 C-18.29579412 14.04929902 -12.77429785 13.87970213 -7 14 C-8.42134069 10.856783 -8.42134069 10.856783 -11 8.625 C-15.56042721 7.674911 -19.54200987 8.87644151 -24 10 C-24.76183594 10.18949219 -25.52367187 10.37898438 -26.30859375 10.57421875 C-26.86675781 10.71472656 -27.42492187 10.85523438 -28 11 C-31.3203125 5.921875 -31.3203125 5.921875 -32 4 C-31.390625 1.875 -31.390625 1.875 -30 0 C-21.00120997 -4.80413491 -8.92165356 -4.62014202 0 0 Z M-21 25 C-20.65555119 27.47266765 -20.65555119 27.47266765 -20 30 C-16.6285809 31.68570955 -13.28616721 31.31285148 -9.6875 30.4375 C-7.60519665 28.96171965 -7.60519665 28.96171965 -7.25 25.375 C-7.1675 24.26125 -7.085 23.1475 -7 22 C-12.50366792 21.67625483 -16.43672206 21.46713966 -21 25 Z " fill="#090801" transform="translate(192,40)"/>
<path d="M0 0 C4.12593192 2.87855716 7.06537651 6.00862953 8.6875 10.875 C8.77128628 13.1588517 8.79479915 15.445101 8.78515625 17.73046875 C8.7837413 18.39210526 8.78232635 19.05374176 8.78086853 19.73542786 C8.77527996 21.84449828 8.76272965 23.95346177 8.75 26.0625 C8.74498352 27.49413909 8.74042087 28.92577985 8.73632812 30.35742188 C8.726166 33.86335539 8.70658861 37.36905827 8.6875 40.875 C4.3975 40.875 0.1075 40.875 -4.3125 40.875 C-4.36148437 39.03292969 -4.41046875 37.19085938 -4.4609375 35.29296875 C-4.5359623 32.88279701 -4.61151025 30.47264151 -4.6875 28.0625 C-4.7184375 26.84755859 -4.749375 25.63261719 -4.78125 24.38085938 C-4.81992187 23.21748047 -4.85859375 22.05410156 -4.8984375 20.85546875 C-4.9298584 19.78192139 -4.9612793 18.70837402 -4.99365234 17.60229492 C-5.12842307 14.6589235 -5.12842307 14.6589235 -7.3125 11.875 C-10.85306848 10.77348981 -12.63081902 10.58063776 -16.0625 12.0625 C-19.12257343 14.52755915 -20.14612818 16.53638205 -20.63134766 20.44042969 C-20.66276855 21.38305664 -20.69418945 22.32568359 -20.7265625 23.296875 C-20.78457031 24.83408203 -20.78457031 24.83408203 -20.84375 26.40234375 C-20.89015625 27.99755859 -20.89015625 27.99755859 -20.9375 29.625 C-20.99550781 31.24341797 -20.99550781 31.24341797 -21.0546875 32.89453125 C-21.14884248 35.55440932 -21.2317555 38.21468106 -21.3125 40.875 C-25.6025 40.875 -29.8925 40.875 -34.3125 40.875 C-34.3125 27.345 -34.3125 13.815 -34.3125 -0.125 C-30.0225 -0.125 -25.7325 -0.125 -21.3125 -0.125 C-20.9825 0.535 -20.6525 1.195 -20.3125 1.875 C-19.36375 1.38 -18.415 0.885 -17.4375 0.375 C-11.68624968 -2.07482265 -5.87149963 -1.99409421 0 0 Z " fill="#090102" transform="translate(368.3125,38.125)"/>
<path d="M0 0 C3.95458118 2.26889102 6.18662404 5.12237213 7.625 9.4375 C8.92115141 15.88414778 8.73806101 22.32151515 8.6875 28.875 C8.68298828 29.98810547 8.67847656 31.10121094 8.67382812 32.24804688 C8.66211207 34.97788796 8.64417891 37.70770114 8.625 40.4375 C4.335 40.4375 0.045 40.4375 -4.375 40.4375 C-4.41238281 38.76300781 -4.44976562 37.08851562 -4.48828125 35.36328125 C-4.5539457 33.15883195 -4.62039287 30.95440586 -4.6875 28.75 C-4.71005859 27.64720703 -4.73261719 26.54441406 -4.75585938 25.40820312 C-4.79130859 24.34150391 -4.82675781 23.27480469 -4.86328125 22.17578125 C-4.88946533 21.19649658 -4.91564941 20.21721191 -4.94262695 19.20825195 C-5.44741721 15.97343284 -6.42120139 14.05076716 -8.375 11.4375 C-12.03749207 10.16358971 -13.65735132 10.10259728 -17.1875 11.75 C-19.46415626 13.25328588 -19.46415626 13.25328588 -20.375 15.4375 C-20.52844209 17.32222859 -20.62459571 19.21177874 -20.69140625 21.1015625 C-20.73330078 22.22304688 -20.77519531 23.34453125 -20.81835938 24.5 C-20.87733398 26.2634375 -20.87733398 26.2634375 -20.9375 28.0625 C-20.98068359 29.24585937 -21.02386719 30.42921875 -21.06835938 31.6484375 C-21.17467338 34.57797907 -21.27536217 37.50772377 -21.375 40.4375 C-25.665 40.4375 -29.955 40.4375 -34.375 40.4375 C-34.375 26.9075 -34.375 13.3775 -34.375 -0.5625 C-30.415 -0.5625 -26.455 -0.5625 -22.375 -0.5625 C-22.045 0.0975 -21.715 0.7575 -21.375 1.4375 C-20.42625 0.9425 -19.4775 0.4475 -18.5 -0.0625 C-12.42088332 -2.62923815 -6.06602819 -2.62070492 0 0 Z " fill="#090801" transform="translate(258.375,38.5625)"/>
<path d="M0 0 C1.42505859 0.00580078 1.42505859 0.00580078 2.87890625 0.01171875 C5.4375 0.3125 5.4375 0.3125 8.4375 2.3125 C8.1075 3.9625 7.7775 5.6125 7.4375 7.3125 C6.51517578 7.16941406 6.51517578 7.16941406 5.57421875 7.0234375 C4.36185547 6.85714844 4.36185547 6.85714844 3.125 6.6875 C2.32449219 6.57148438 1.52398438 6.45546875 0.69921875 6.3359375 C-1.84973215 6.09716593 -1.84973215 6.09716593 -4.5625 8.3125 C-5.35687923 10.49755129 -5.35687923 10.49755129 -5.75 12.9375 C-6.018125 14.38125 -6.28625 15.825 -6.5625 17.3125 C-1.2825 17.3125 3.9975 17.3125 9.4375 17.3125 C9.5303125 14.7446875 9.5303125 14.7446875 9.625 12.125 C9.99125061 7.94004818 10.21458518 6.59828823 12.875 3.1875 C16.36248368 0.63568267 18.10599722 0.15634363 22.375 0.125 C23.25027344 0.11082031 24.12554688 0.09664062 25.02734375 0.08203125 C27.4375 0.3125 27.4375 0.3125 30.4375 2.3125 C30.1075 3.9625 29.7775 5.6125 29.4375 7.3125 C27.45182292 7.01953125 25.46614583 6.7265625 23.48046875 6.43359375 C21.2349658 6.17345201 21.2349658 6.17345201 18.4375 7.3125 C17.7775 10.6125 17.1175 13.9125 16.4375 17.3125 C20.3975 17.3125 24.3575 17.3125 28.4375 17.3125 C28.4375 18.9625 28.4375 20.6125 28.4375 22.3125 C24.4775 22.3125 20.5175 22.3125 16.4375 22.3125 C16.4375 33.8625 16.4375 45.4125 16.4375 57.3125 C14.1275 57.3125 11.8175 57.3125 9.4375 57.3125 C9.4375 45.7625 9.4375 34.2125 9.4375 22.3125 C4.4875 22.3125 -0.4625 22.3125 -5.5625 22.3125 C-5.5625 33.8625 -5.5625 45.4125 -5.5625 57.3125 C-7.8725 57.3125 -10.1825 57.3125 -12.5625 57.3125 C-12.5625 45.7625 -12.5625 34.2125 -12.5625 22.3125 C-14.8725 22.3125 -17.1825 22.3125 -19.5625 22.3125 C-19.5625 20.6625 -19.5625 19.0125 -19.5625 17.3125 C-17.2525 17.3125 -14.9425 17.3125 -12.5625 17.3125 C-12.6553125 15.518125 -12.6553125 15.518125 -12.75 13.6875 C-12.74265917 9.53992862 -11.8588057 6.83896947 -9.5625 3.3125 C-6.41599273 0.36831803 -4.26557188 -0.07544549 0 0 Z " fill="#080102" transform="translate(577.5625,21.6875)"/>
<path d="M0 0 C4.29 0 8.58 0 13 0 C13 14.19 13 28.38 13 43 C21.51162825 42.96040724 21.51162825 42.96040724 30.02319336 42.90991211 C31.6030603 42.90616577 31.6030603 42.90616577 33.21484375 42.90234375 C34.84087524 42.89448853 34.84087524 42.89448853 36.49975586 42.88647461 C39 43 39 43 40 44 C40 47.3 40 50.6 40 54 C26.8 54 13.6 54 0 54 C0 36.18 0 18.36 0 0 Z " fill="#090102" transform="translate(274,25)"/>
<path d="M0 0 C1.98 0 3.96 0 6 0 C6 18.81 6 37.62 6 57 C4.02 57 2.04 57 0 57 C-0.495 55.02 -0.495 55.02 -1 53 C-1.9075 53.639375 -2.815 54.27875 -3.75 54.9375 C-9.24595645 58.42531851 -14.71140224 58.87538793 -21.0859375 57.57421875 C-26.55560225 55.8662583 -29.92457706 52.79922688 -33 48 C-35.91048734 41.96970945 -36.16772553 35.04723054 -34.3125 28.6171875 C-31.68202602 22.85206537 -27.91838451 19.33230597 -22.125 16.6875 C-15.02027533 15.12446057 -10.3517898 15.76183265 -4 19 C-2.515 19.99 -2.515 19.99 -1 21 C-0.67 14.07 -0.34 7.14 0 0 Z M-26.3125 27.625 C-28.73440809 32.46881619 -29.94943216 36.944844 -28.30078125 42.25 C-26.53508004 46.04660655 -24.76356746 48.93610817 -21 51 C-17.27400457 52.24199848 -13.87020783 52.53508555 -10 52 C-4.89790078 49.30455136 -1.82618963 46.4785689 0 41 C0.3684431 35.38124276 0.19190228 31.84288621 -3 27 C-6.6799016 23.59609102 -9.26528618 22.1309218 -14.3125 21.75 C-19.74837709 22.11853404 -22.70798827 23.53339209 -26.3125 27.625 Z " fill="#090102" transform="translate(701,22)"/>
<path d="M0 0 C22.11 0 44.22 0 67 0 C67 1.98 67 3.96 67 6 C64.69 6 62.38 6 60 6 C60 10.95 60 15.9 60 21 C58.35 21 56.7 21 55 21 C54.67 16.71 54.34 12.42 54 8 C49.71 10.31 45.42 12.62 41 15 C42.299375 15.61875 43.59875 16.2375 44.9375 16.875 C48.875 18.75 48.875 18.75 50 21 C48.25034642 21.05429959 46.50020213 21.09292823 44.75 21.125 C43.77546875 21.14820312 42.8009375 21.17140625 41.796875 21.1953125 C38.95123661 20.99659474 37.45899582 20.3486563 35 19 C32.69202999 19.33940736 31.08489539 19.95755231 29 21 C27.12620395 21.07033769 25.24998898 21.0843022 23.375 21.0625 C22.37210938 21.05347656 21.36921875 21.04445313 20.3359375 21.03515625 C19.56507812 21.02355469 18.79421875 21.01195313 18 21 C18 20.34 18 19.68 18 19 C23.625 16 23.625 16 27 16 C27 15.34 27 14.68 27 14 C26.154375 13.731875 25.30875 13.46375 24.4375 13.1875 C20.86145933 11.9521405 17.46139092 10.523012 14 9 C13.67 12.96 13.34 16.92 13 21 C11.02 21 9.04 21 7 21 C7 16.05 7 11.1 7 6 C4.69 6 2.38 6 0 6 C0 4.02 0 2.04 0 0 Z M24 6 C29.47334257 10.45406579 29.47334257 10.45406579 36 11 C38.8367112 9.93001244 41.40913383 8.56797875 44 7 C44 6.67 44 6.34 44 6 C37.4 6 30.8 6 24 6 Z " fill="#02A8F3" transform="translate(16,22)"/>
<path d="M0 0 C22.11 0 44.22 0 67 0 C67 1.65 67 3.3 67 5 C64.69 5 62.38 5 60 5 C60 10.28 60 15.56 60 21 C58.35 21 56.7 21 55 21 C55 16.71 55 12.42 55 8 C51.04 9.98 47.08 11.96 43 14 C43 14.66 43 15.32 43 16 C45.31 16.99 47.62 17.98 50 19 C50 19.66 50 20.32 50 21 C43.79463075 21.19874848 38.91162158 21.01860249 33 19 C32.40574219 19.309375 31.81148437 19.61875 31.19921875 19.9375 C28.40913516 21.28546223 26.33154398 21.19837009 23.25 21.125 C22.26515625 21.10695313 21.2803125 21.08890625 20.265625 21.0703125 C19.51796875 21.04710938 18.7703125 21.02390625 18 21 C18 20.34 18 19.68 18 19 C20.64 17.68 23.28 16.36 26 15 C21.71 12.69 17.42 10.38 13 8 C13 12.29 13 16.58 13 21 C11.02 21 9.04 21 7 21 C7 15.72 7 10.44 7 5 C4.69 5 2.38 5 0 5 C0 3.35 0 1.7 0 0 Z M21 5 C27.48878728 9.46760848 27.48878728 9.46760848 35 11 C38.88131209 9.7062293 42.41382313 7.95692392 46 6 C46 5.67 46 5.34 46 5 C37.75 5 29.5 5 21 5 Z " fill="#02A7F3" transform="translate(16,46)"/>
<path d="M0 0 C-0.66 1.98 -1.32 3.96 -2 6 C-3.216875 5.505 -4.43375 5.01 -5.6875 4.5 C-11.99111203 2.38879026 -19.99765932 1.41941461 -26.3046875 3.91015625 C-28.57778687 5.37143442 -29.20968406 6.41351145 -30 9 C-30.32294477 12.06496649 -30.32294477 12.06496649 -29 15 C-25.214898 17.54915033 -21.46243521 18.88323497 -17.12109375 20.1796875 C-16.42443604 20.38843506 -15.72777832 20.59718262 -15.01000977 20.81225586 C-13.61560186 21.22061248 -12.21633658 21.61282655 -10.81225586 21.98657227 C-5.81799356 23.40959994 -2.71934261 25.34283485 1 29 C2.24350856 32.73052567 2.52198871 36.12552043 2 40 C-0.41827511 44.83655023 -3.31553596 47.36498898 -8 50 C-16.23257654 52.64493417 -26.23489449 51.63412616 -34 48 C-36.03076603 46.45973502 -37.38110679 44.99663496 -39 43 C-38.34 41.68 -37.68 40.36 -37 39 C-36.34 39.268125 -35.68 39.53625 -35 39.8125 C-34.01 40.204375 -33.02 40.59625 -32 41 C-30.824375 41.53625 -29.64875 42.0725 -28.4375 42.625 C-22.59557943 44.78662146 -15.88192273 45.21219892 -9.8984375 43.34375 C-7.97817403 42.40152656 -7.97817403 42.40152656 -6 40 C-5 36.5 -5 36.5 -6 33 C-10.49557903 29.31418365 -14.99400661 27.90310904 -20.5 26.5 C-32.63192562 23.40838451 -32.63192562 23.40838451 -36.3515625 18.0546875 C-38.03932259 12.7067248 -37.76592386 7.56021527 -35.3125 2.5625 C-26.06794251 -7.68146911 -11.39757107 -5.11634453 0 0 Z " fill="#090102" transform="translate(475,29)"/>
<path d="M0 0 C4.62437912 4.74295295 5.12491487 8.39517609 5.09765625 14.85546875 C5.0962413 15.51710526 5.09482635 16.17874176 5.09336853 16.86042786 C5.08777996 18.96949828 5.07522965 21.07846177 5.0625 23.1875 C5.05748352 24.61913909 5.05292087 26.05077985 5.04882812 27.48242188 C5.0378143 30.98831588 5.02055755 34.4941475 5 38 C3.02 38 1.04 38 -1 38 C-1.33 37.01 -1.66 36.02 -2 35 C-3.134375 35.66 -4.26875 36.32 -5.4375 37 C-10.81267868 39.65440922 -15.48335144 40.03538956 -21.2421875 38.33984375 C-25.12406054 36.69751285 -26.7765377 35.34176588 -29.125 31.75 C-30.17850044 27.2349981 -30.02511886 24.17737524 -28 20 C-24.95501577 16.95501577 -22.31715279 15.12618293 -17.9152832 14.88647461 C-17.13499756 14.89171143 -16.35471191 14.89694824 -15.55078125 14.90234375 C-14.70322266 14.90556641 -13.85566406 14.90878906 -12.98242188 14.91210938 C-12.10134766 14.92048828 -11.22027344 14.92886719 -10.3125 14.9375 C-8.97348633 14.94426758 -8.97348633 14.94426758 -7.60742188 14.95117188 C-5.40488013 14.96295017 -3.20247401 14.97939836 -1 15 C-1.39553053 13.3489597 -1.81713897 11.7041485 -2.25 10.0625 C-2.48203125 9.14597656 -2.7140625 8.22945312 -2.953125 7.28515625 C-3.75500465 4.86101422 -3.75500465 4.86101422 -5.84765625 4.203125 C-6.55792969 4.13609375 -7.26820313 4.0690625 -8 4 C-8.67417969 3.92136719 -9.34835937 3.84273437 -10.04296875 3.76171875 C-16.19503901 3.54880557 -20.59530911 5.13794147 -26 8 C-28 5 -28 5 -28 3 C-26.44288747 -0.11422506 -24.15309849 -0.7266333 -21 -2 C-13.8297195 -4.07560751 -6.53235794 -3.66449348 0 0 Z M-22 22 C-23.1716367 25.36760187 -23.1716367 25.36760187 -23 29 C-20.93848374 32.26406741 -19.39429804 32.88840622 -15.6875 33.9375 C-10.13085259 34.03168046 -6.58326414 32.5020711 -2.5625 28.6875 C-0.71643974 25.51227636 -0.87558383 23.60806902 -1 20 C-3.75026417 19.94595551 -6.49946203 19.90630694 -9.25 19.875 C-10.41595703 19.84986328 -10.41595703 19.84986328 -11.60546875 19.82421875 C-17.14567703 19.65051006 -17.14567703 19.65051006 -22 22 Z " fill="#090102" transform="translate(549,41)"/>
<path d="M0 0 C4.64191882 3.5618684 6.93085194 7.493651 7.734375 13.265625 C7.8016028 20.81194589 7.49938234 26.20456962 2.265625 31.8984375 C-2.23994096 36.28847613 -6.82689783 37.94891695 -13.046875 38.2734375 C-18.79967694 38.11821856 -24.00066542 36.32618445 -28.33984375 32.47265625 C-33.39847962 26.73162376 -34.19234234 21.30690097 -34.046875 13.90625 C-33.44721065 8.13448064 -31.1619292 3.94520345 -26.921875 0.0234375 C-18.28053719 -5.73745437 -8.63113817 -5.48193911 0 0 Z M-25.046875 7.5234375 C-27.46878309 12.36725369 -28.68380716 16.8432815 -27.03515625 22.1484375 C-25.26945504 25.94504405 -23.49794246 28.83454567 -19.734375 30.8984375 C-16.00837957 32.14043598 -12.60458283 32.43352305 -8.734375 31.8984375 C-3.63227578 29.20298886 -0.56056463 26.3770064 1.265625 20.8984375 C1.6340681 15.27968026 1.45752728 11.74132371 -1.734375 6.8984375 C-6.092764 2.96525719 -8.69488482 1.57978732 -14.640625 1.6875 C-19.31322254 2.15824677 -22.00429082 4.0696933 -25.046875 7.5234375 Z " fill="#090102" transform="translate(638.734375,42.1015625)"/>
<path d="M0 0 C1.91182079 1.55162267 3.37972942 3.12656214 5 5 C3.68 6.32 2.36 7.64 1 9 C0.071875 8.360625 -0.85625 7.72125 -1.8125 7.0625 C-6.4113145 4.0867965 -9.57269478 3.6320471 -15 4 C-19.15757553 5.59906751 -21.7122114 7.14688235 -24 11 C-25.67009208 16.01027625 -25.57792698 20.33043317 -23.875 25.25 C-21.54125416 28.67282723 -19.74526566 30.19672394 -16 32 C-11.10227576 32.86017379 -7.93600647 32.5546705 -3.625 30 C-2.75875 29.34 -1.8925 28.68 -1 28 C2 28 2 28 3.6875 29.5 C4.120625 29.995 4.55375 30.49 5 31 C0.92050471 35.57397956 -2.95047705 38.46736004 -9.16796875 39.28515625 C-14.50371419 39.49638197 -19.40302066 38.83464852 -24 36 C-28.50154779 31.82061327 -31.71410768 28.21424647 -32.2734375 21.92578125 C-32.48970095 14.23179318 -32.33053339 8.81512734 -27 3 C-19.60065274 -4.39934726 -8.94113173 -4.78855591 0 0 Z " fill="#090102" transform="translate(512,41)"/>
<path d="M0 0 C4.29 0 8.58 0 13 0 C13 13.53 13 27.06 13 41 C8.71 41 4.42 41 0 41 C0 27.47 0 13.94 0 0 Z " fill="#090102" transform="translate(315,38)"/>
<path d="M0 0 C4.29 0 8.58 0 13 0 C13 13.53 13 27.06 13 41 C8.71 41 4.42 41 0 41 C0 27.47 0 13.94 0 0 Z " fill="#090801" transform="translate(204,38)"/>
<path d="M0 0 C22.11 0 44.22 0 67 0 C67 1.65 67 3.3 67 5 C64.69 5 62.38 5 60 5 C60 6.98 60 8.96 60 11 C58.35 11 56.7 11 55 11 C55 9.02 55 7.04 55 5 C41.14 5 27.28 5 13 5 C13 6.98 13 8.96 13 11 C11.02 11 9.04 11 7 11 C7 9.02 7 7.04 7 5 C4.69 5 2.38 5 0 5 C0 3.35 0 1.7 0 0 Z " fill="#02A8F3" transform="translate(16,70)"/>
<path d="M0 0 C1.98 0 3.96 0 6 0 C6 18.81 6 37.62 6 57 C4.02 57 2.04 57 0 57 C0 38.19 0 19.38 0 0 Z " fill="#090102" transform="translate(653,22)"/>
<path d="M0 0 C2.5625 1.5625 2.5625 1.5625 4 4 C4 7.78814147 3.8367392 10.03929943 1.3125 12.9375 C-1.75283164 14.34589562 -3.65595685 14.47772045 -7 14 C-9.875 12.375 -9.875 12.375 -12 10 C-12.67927401 6.37720527 -12.46942769 4.74326051 -10.5 1.625 C-6.98827684 -0.65762005 -4.07600894 -0.80853347 0 0 Z " fill="#090801" transform="translate(215,19)"/>
<path d="M0 0 C2.23159222 1.43973692 2.77176398 2.4733015 3.8125 4.875 C4.06704199 7.75980919 3.33930733 9.45531608 2 12 C-1.48804095 14.32536063 -2.90140754 14.33457898 -7 14 C-10.7 12.6 -10.7 12.6 -12 10 C-12.56949153 3.73559322 -12.56949153 3.73559322 -10.5 1.0625 C-6.74515828 -0.53330773 -4.08109691 -0.3886759 0 0 Z " fill="#090102" transform="translate(326,19)"/>
<path d="M0 0 C3.4375 -0.5625 3.4375 -0.5625 7 0 C9.4375 1.9375 9.4375 1.9375 11 4 C11 4.33 11 4.66 11 5 C6.38 5 1.76 5 -3 5 C-2.01 3.35 -1.02 1.7 0 0 Z " fill="#02A4EF" transform="translate(70,84)"/>
<path d="M0 0 C2.375 1.9375 2.375 1.9375 4 4 C4 4.33 4 4.66 4 5 C-0.62 5 -5.24 5 -10 5 C-7.34033911 -0.31932178 -5.76830333 -0.57683033 0 0 Z " fill="#02A8F2" transform="translate(29,84)"/>
<path d="M0 0 C1.98 0 3.96 0 6 0 C6 1.32 6 2.64 6 4 C4.02 4 2.04 4 0 4 C0 2.68 0 1.36 0 0 Z " fill="#01A7F4" transform="translate(23,15)"/>
<path d="M0 0 C1.65 0 3.3 0 5 0 C5 1.32 5 2.64 5 4 C3.35 4 1.7 4 0 4 C0 2.68 0 1.36 0 0 Z " fill="#01A8F3" transform="translate(71,15)"/>
</svg>
